<svg width="1024" height="768" viewBox="0 0 1024 768" fill="none" xmlns="http://www.w3.org/2000/svg">
<g clip-path="url(#clip0)">
<g clip-path="url(#clip1)">
<rect width="1024" height="768" fill="url(#paint0_linear)"/>
<g filter="url(#filter0_f)">
<path d="M425 254L426.35 257.65L430 259L426.35 260.35L425 264L423.65 260.35L420 259L423.65 257.65L425 254Z" fill="white"/>
</g>
<g filter="url(#filter1_f)">
<path d="M848 731L849.35 734.65L853 736L849.35 737.35L848 741L846.65 737.35L843 736L846.65 734.65L848 731Z" fill="white"/>
</g>
<g filter="url(#filter2_f)">
<path d="M626 28L627.35 31.6495L631 33L627.35 34.3505L626 38L624.65 34.3505L621 33L624.65 31.6495L626 28Z" fill="white"/>
</g>
<g filter="url(#filter3_f)">
<path d="M1023 578L1024.35 581.65L1028 583L1024.35 584.35L1023 588L1021.65 584.35L1018 583L1021.65 581.65L1023 578Z" fill="white"/>
</g>
<g filter="url(#filter4_f)">
<path d="M453 -9L454.35 -5.35045L458 -4L454.35 -2.64955L453 1L451.65 -2.64955L448 -4L451.65 -5.35045L453 -9Z" fill="white"/>
</g>
<g filter="url(#filter5_f)">
<path d="M517 383L518.35 386.65L522 388L518.35 389.35L517 393L515.65 389.35L512 388L515.65 386.65L517 383Z" fill="white"/>
</g>
<g filter="url(#filter6_f)">
<path d="M267 504L268.35 507.65L272 509L268.35 510.35L267 514L265.65 510.35L262 509L265.65 507.65L267 504Z" fill="white"/>
</g>
<g filter="url(#filter7_f)">
<path d="M117 297L118.35 300.65L122 302L118.35 303.35L117 307L115.65 303.35L112 302L115.65 300.65L117 297Z" fill="white"/>
</g>
<g filter="url(#filter8_f)">
<path d="M606 46L607.35 49.6495L611 51L607.35 52.3505L606 56L604.65 52.3505L601 51L604.65 49.6495L606 46Z" fill="white"/>
</g>
<g filter="url(#filter9_f)">
<path d="M178 157L179.35 160.65L183 162L179.35 163.35L178 167L176.65 163.35L173 162L176.65 160.65L178 157Z" fill="white"/>
</g>
<g filter="url(#filter10_f)">
<path d="M112 690L113.35 693.65L117 695L113.35 696.35L112 700L110.65 696.35L107 695L110.65 693.65L112 690Z" fill="white"/>
</g>
<g filter="url(#filter11_f)">
<circle cx="782.5" cy="490.5" r="2.5" fill="#FFFCA8"/>
</g>
<g filter="url(#filter12_f)">
<circle cx="876.5" cy="147.5" r="2.5" fill="#FFFCA8"/>
</g>
<g filter="url(#filter13_f)">
<circle cx="1003.5" cy="553.5" r="2.5" fill="#FFFCA8"/>
</g>
<g filter="url(#filter14_f)">
<circle cx="579.5" cy="580.5" r="2.5" fill="#FFFCA8"/>
</g>
<g filter="url(#filter15_f)">
<circle cx="737.5" cy="263.5" r="2.5" fill="#FFFCA8"/>
</g>
<g filter="url(#filter16_f)">
<circle cx="833.5" cy="758.5" r="2.5" fill="#FFFCA8"/>
</g>
<g filter="url(#filter17_f)">
<circle cx="214.5" cy="164.5" r="2.5" fill="#FFFCA8"/>
</g>
<g filter="url(#filter18_f)">
<path d="M57 393L53.3505 394.35L52 398L50.6495 394.35L47 393L50.6495 391.65L52 388L53.3505 391.65L57 393Z" fill="white"/>
</g>
<g filter="url(#filter19_f)">
<path d="M112 584L108.35 585.35L107 589L105.65 585.35L102 584L105.65 582.65L107 579L108.35 582.65L112 584Z" fill="white"/>
</g>
<g filter="url(#filter20_f)">
<path d="M1 156L-2.64955 157.35L-4 161L-5.35045 157.35L-9 156L-5.35045 154.65L-4 151L-2.64955 154.65L1 156Z" fill="white"/>
</g>
<g filter="url(#filter21_f)">
<circle cx="19.5" cy="203.5" r="2.5" transform="rotate(90 19.5 203.5)" fill="#FFFCA8"/>
</g>
<g filter="url(#filter22_f)">
<circle cx="555.5" cy="724.5" r="2.5" fill="#FFFCA8"/>
</g>
<g filter="url(#filter23_f)">
<circle cx="310.5" cy="659.5" r="2.5" fill="#FFFCA8"/>
</g>
<g filter="url(#filter24_f)">
<path d="M957 153L953.35 154.35L952 158L950.65 154.35L947 153L950.65 151.65L952 148L953.35 151.65L957 153Z" fill="white"/>
</g>
<g filter="url(#filter25_f)">
<path d="M917 272L918.35 275.65L922 277L918.35 278.35L917 282L915.65 278.35L912 277L915.65 275.65L917 272Z" fill="white"/>
</g>
<g filter="url(#filter26_f)">
<path d="M771 -2.00003L767.35 -0.649577L766 2.99997L764.65 -0.649577L761 -2.00003L764.65 -3.35048L766 -7.00003L767.35 -3.35048L771 -2.00003Z" fill="white"/>
</g>
<g filter="url(#filter27_f)">
<circle cx="661.5" cy="201.5" r="2.5" transform="rotate(90 661.5 201.5)" fill="#FFFCA8"/>
</g>
<g filter="url(#filter28_f)">
<circle cx="656.5" cy="473.5" r="2.5" transform="rotate(90 656.5 473.5)" fill="#FFFCA8"/>
</g>
<g filter="url(#filter29_f)">
<circle cx="577.5" cy="758.5" r="2.5" transform="rotate(90 577.5 758.5)" fill="#FFFCA8"/>
</g>
<g filter="url(#filter30_f)">
<circle cx="702.5" cy="719.5" r="2.5" transform="rotate(90 702.5 719.5)" fill="#FFFCA8"/>
</g>
</g>
<g filter="url(#filter31_d)">
<path d="M599.315 583.529C599.002 586.014 598.585 588.467 598.069 590.882H426.931C426.415 588.467 425.998 586.014 425.685 583.529H599.315Z" fill="#FFC700"/>
<path d="M599.315 583.529C599.002 586.014 598.585 588.467 598.069 590.882H426.931C426.415 588.467 425.998 586.014 425.685 583.529H599.315Z" fill="url(#paint1_linear)"/>
<path d="M433.418 610C431.622 606.22 430.089 602.29 428.843 598.235H596.157C594.911 602.29 593.378 606.22 591.582 610H433.418Z" fill="#FFC700"/>
<path d="M433.418 610C431.622 606.22 430.089 602.29 428.843 598.235H596.157C594.911 602.29 593.378 606.22 591.582 610H433.418Z" fill="url(#paint2_linear)"/>
<path d="M447.388 630.956C444.394 627.623 441.652 624.059 439.192 620.294H585.808C583.348 624.059 580.606 627.623 577.612 630.956H447.388Z" fill="#FFC700"/>
<path d="M447.388 630.956C444.394 627.623 441.652 624.059 439.192 620.294H585.808C583.348 624.059 580.606 627.623 577.612 630.956H447.388Z" fill="url(#paint3_linear)"/>
<path d="M465.048 646.029C478.718 654.869 495.01 660 512.5 660C529.99 660 546.282 654.869 559.952 646.029H465.048Z" fill="#FFC700"/>
<path d="M465.048 646.029C478.718 654.869 495.01 660 512.5 660C529.99 660 546.282 654.869 559.952 646.029H465.048Z" fill="url(#paint4_linear)"/>
<path d="M425.045 569.559H599.955C599.922 568.574 599.873 567.594 599.808 566.618H425.192C425.127 567.594 425.078 568.574 425.045 569.559Z" fill="#FFC700"/>
<path d="M425.045 569.559H599.955C599.922 568.574 599.873 567.594 599.808 566.618H425.192C425.127 567.594 425.078 568.574 425.045 569.559Z" fill="url(#paint5_linear)"/>
<path d="M600 573.235C599.987 574.839 599.931 576.433 599.832 578.015H425.168C425.069 576.433 425.013 574.839 425 573.235H600Z" fill="#FFC700"/>
<path d="M600 573.235C599.987 574.839 599.931 576.433 599.832 578.015H425.168C425.069 576.433 425.013 574.839 425 573.235H600Z" fill="url(#paint6_linear)"/>
<path d="M512.5 485C467.404 485 430.275 519.113 425.513 562.941H599.487C594.725 519.113 557.596 485 512.5 485Z" fill="#FFC700"/>
<path d="M512.5 485C467.404 485 430.275 519.113 425.513 562.941H599.487C594.725 519.113 557.596 485 512.5 485Z" fill="url(#paint7_linear)"/>
</g>
<g clip-path="url(#clip2)">
<rect y="668" width="1024" height="100" fill="#002F49"/>
<rect y="668" width="1024" height="100" fill="url(#paint8_linear)"/>
<g filter="url(#filter32_d)">
<path fill-rule="evenodd" clip-rule="evenodd" d="M512 596.437L425.397 768H598.603L512 596.437ZM512 606.465L431.248 766.437H592.752L512 606.465Z" fill="#FEEFFF"/>
<path fill-rule="evenodd" clip-rule="evenodd" d="M512 596.437L252.192 768H771.808L512 596.437ZM512 600.09L260.09 766.437H763.91L512 600.09Z" fill="#FEEFFF"/>
<path fill-rule="evenodd" clip-rule="evenodd" d="M512 596.437L78.9873 768H945.013L512 596.437ZM512 598.961L89.299 766.437H934.701L512 598.961Z" fill="#FEEFFF"/>
<path fill-rule="evenodd" clip-rule="evenodd" d="M512 598.545L-81.248 766.437H1105.25L512 598.545ZM512 596.437L-94.2178 768H1118.22L512 596.437Z" fill="#FEEFFF"/>
<path fill-rule="evenodd" clip-rule="evenodd" d="M512 598.349L-251.642 766.437H1275.64L512 598.349ZM512 596.437L-267.423 768H1291.42L512 596.437Z" fill="#FEEFFF"/>
<path fill-rule="evenodd" clip-rule="evenodd" d="M512 598.241L-421.938 766.437H1445.94L512 598.241ZM512 596.437L-440.628 768H1464.63L512 596.437Z" fill="#FEEFFF"/>
<path fill-rule="evenodd" clip-rule="evenodd" d="M512 598.176L-592.172 766.437H1616.17L512 598.176ZM512 596.437L-613.833 768H1637.83L512 596.437Z" fill="#FEEFFF"/>
<path fill-rule="evenodd" clip-rule="evenodd" d="M512 598.134L-762.363 766.437H1786.36L512 598.134ZM512 596.437L-787.038 768H1811.04L512 596.437Z" fill="#FEEFFF"/>
<path fill-rule="evenodd" clip-rule="evenodd" d="M512 598.105L-932.524 766.437H1956.52L512 598.105ZM512 596.437L-960.243 768H1984.24L512 596.437Z" fill="#FEEFFF"/>
<path fill-rule="evenodd" clip-rule="evenodd" d="M512 598.085L-1102.66 766.437H2126.66L512 598.085ZM512 596.437L-1133.45 768H2157.45L512 596.437Z" fill="#FEEFFF"/>
<path fill-rule="evenodd" clip-rule="evenodd" d="M512 598.07L-1272.79 766.437H2296.79L512 598.07ZM512 596.437L-1306.65 768H2330.65L512 596.437Z" fill="#FEEFFF"/>
<path fill-rule="evenodd" clip-rule="evenodd" d="M512 598.058L-1442.9 766.437H2466.9L512 598.058ZM512 596.437L-1479.86 768H2503.86L512 596.437Z" fill="#FEEFFF"/>
<path fill-rule="evenodd" clip-rule="evenodd" d="M1418.67 767.669L-394.667 767.669L-394.667 766.106L1418.67 766.107L1418.67 767.669Z" fill="#FEEFFF"/>
<path fill-rule="evenodd" clip-rule="evenodd" d="M1418.67 750.505L-394.667 750.505L-394.667 748.942L1418.67 748.942L1418.67 750.505Z" fill="#FEEFFF"/>
<path fill-rule="evenodd" clip-rule="evenodd" d="M1418.67 734.901L-394.667 734.901L-394.667 733.339L1418.67 733.339L1418.67 734.901Z" fill="#FEEFFF"/>
<path fill-rule="evenodd" clip-rule="evenodd" d="M1418.67 720.858L-394.667 720.858L-394.667 719.295L1418.67 719.295L1418.67 720.858Z" fill="#FEEFFF"/>
<path fill-rule="evenodd" clip-rule="evenodd" d="M1418.67 708.375L-394.667 708.375L-394.667 706.812L1418.67 706.813L1418.67 708.375Z" fill="#FEEFFF"/>
<path fill-rule="evenodd" clip-rule="evenodd" d="M1418.67 697.452L-394.667 697.452L-394.667 695.89L1418.67 695.89L1418.67 697.452Z" fill="#FEEFFF"/>
<path fill-rule="evenodd" clip-rule="evenodd" d="M1418.67 688.09L-394.667 688.09L-394.667 686.528L1418.67 686.528L1418.67 688.09Z" fill="#FEEFFF"/>
<path fill-rule="evenodd" clip-rule="evenodd" d="M1418.67 680.288L-394.667 680.288L-394.667 678.726L1418.67 678.726L1418.67 680.288Z" fill="#FEEFFF"/>
<path fill-rule="evenodd" clip-rule="evenodd" d="M1418.67 674.047L-394.667 674.047L-394.667 672.484L1418.67 672.484L1418.67 674.047Z" fill="#FEEFFF"/>
<path fill-rule="evenodd" clip-rule="evenodd" d="M1418.67 669.366L-394.667 669.366L-394.667 667.803L1418.67 667.803L1418.67 669.366Z" fill="#FEEFFF"/>
</g>
</g>
<g clip-path="url(#clip3)">
<path d="M-447 658.712L-384 633.5L-365 647.035L-346 650.219L-328.5 642.523L-298 650.219L-245.5 658.712L-207.5 642.523L-185.5 650.219L-111 628.458L-98.5 647.035L-67 650.219L-58.5 636.419L-12 611.738L-1.5 633.5L28.5 650.219L54 636.419L90.5 633.5L119 616.25L154.5 611.738L191.5 620.231L227 636.419L254.5 628.458L263 611.738L280.5 599H298.5L316.5 616.25L335.5 628.458L351 616.25L378.5 620.231L402.5 633.5L411 628.458L424.5 620.231L439.5 606.165H458L491 620.231L502.5 628.458H521L544.5 620.231L560 633.5L577 620.231L606.5 611.738L615.5 620.231L636.5 628.458L666 642.523L687 645.708L709 633.5L746 616.25L771 620.231L803.5 606.165L825.5 620.231L858.5 636.419L888.5 633.5L918 642.523L938 645.708L963.5 628.458L1040 642.523L1066 639.604L1077.5 645.708C1081.83 647.654 1090.5 652.077 1090.5 654.2C1090.5 656.323 1100.17 655.085 1105 654.2L1115.5 645.708L1137.5 620.231L1189 628.458L1206 642.523L1230 639.604L1244.5 608.023L1263.5 625.273L1287.5 616.25H1308.5L1325.5 628.458L1347.5 654.2L1384.5 650.219L1401 639.604L1424 645.708L1444 654.2L1470.5 650.219V668H-447V658.712Z" fill="black"/>
<path d="M-447 658.712L-384 633.5L-365 647.035L-346 650.219L-328.5 642.523L-298 650.219L-245.5 658.712L-207.5 642.523L-185.5 650.219L-111 628.458L-98.5 647.035L-67 650.219L-58.5 636.419L-12 611.738L-1.5 633.5L28.5 650.219L54 636.419L90.5 633.5L119 616.25L154.5 611.738L191.5 620.231L227 636.419L254.5 628.458L263 611.738L280.5 599H298.5L316.5 616.25L335.5 628.458L351 616.25L378.5 620.231L402.5 633.5L411 628.458L424.5 620.231L439.5 606.165H458L491 620.231L502.5 628.458H521L544.5 620.231L560 633.5L577 620.231L606.5 611.738L615.5 620.231L636.5 628.458L666 642.523L687 645.708L709 633.5L746 616.25L771 620.231L803.5 606.165L825.5 620.231L858.5 636.419L888.5 633.5L918 642.523L938 645.708L963.5 628.458L1040 642.523L1066 639.604L1077.5 645.708C1081.83 647.654 1090.5 652.077 1090.5 654.2C1090.5 656.323 1100.17 655.085 1105 654.2L1115.5 645.708L1137.5 620.231L1189 628.458L1206 642.523L1230 639.604L1244.5 608.023L1263.5 625.273L1287.5 616.25H1308.5L1325.5 628.458L1347.5 654.2L1384.5 650.219L1401 639.604L1424 645.708L1444 654.2L1470.5 650.219V668H-447V658.712Z" fill="url(#paint9_linear)"/>
</g>
<rect x="1" y="556" width="1023" height="244" fill="url(#paint10_linear)"/>
</g>
<defs>
<filter id="filter0_f" x="418" y="252" width="14" height="14" filterUnits="userSpaceOnUse" color-interpolation-filters="sRGB">
<feFlood flood-opacity="0" result="BackgroundImageFix"/>
<feBlend mode="normal" in="SourceGraphic" in2="BackgroundImageFix" result="shape"/>
<feGaussianBlur stdDeviation="1" result="effect1_foregroundBlur"/>
</filter>
<filter id="filter1_f" x="839" y="727" width="18" height="18" filterUnits="userSpaceOnUse" color-interpolation-filters="sRGB">
<feFlood flood-opacity="0" result="BackgroundImageFix"/>
<feBlend mode="normal" in="SourceGraphic" in2="BackgroundImageFix" result="shape"/>
<feGaussianBlur stdDeviation="2" result="effect1_foregroundBlur"/>
</filter>
<filter id="filter2_f" x="619" y="26" width="14" height="14" filterUnits="userSpaceOnUse" color-interpolation-filters="sRGB">
<feFlood flood-opacity="0" result="BackgroundImageFix"/>
<feBlend mode="normal" in="SourceGraphic" in2="BackgroundImageFix" result="shape"/>
<feGaussianBlur stdDeviation="1" result="effect1_foregroundBlur"/>
</filter>
<filter id="filter3_f" x="1016" y="576" width="14" height="14" filterUnits="userSpaceOnUse" color-interpolation-filters="sRGB">
<feFlood flood-opacity="0" result="BackgroundImageFix"/>
<feBlend mode="normal" in="SourceGraphic" in2="BackgroundImageFix" result="shape"/>
<feGaussianBlur stdDeviation="1" result="effect1_foregroundBlur"/>
</filter>
<filter id="filter4_f" x="446" y="-11" width="14" height="14" filterUnits="userSpaceOnUse" color-interpolation-filters="sRGB">
<feFlood flood-opacity="0" result="BackgroundImageFix"/>
<feBlend mode="normal" in="SourceGraphic" in2="BackgroundImageFix" result="shape"/>
<feGaussianBlur stdDeviation="1" result="effect1_foregroundBlur"/>
</filter>
<filter id="filter5_f" x="510" y="381" width="14" height="14" filterUnits="userSpaceOnUse" color-interpolation-filters="sRGB">
<feFlood flood-opacity="0" result="BackgroundImageFix"/>
<feBlend mode="normal" in="SourceGraphic" in2="BackgroundImageFix" result="shape"/>
<feGaussianBlur stdDeviation="1" result="effect1_foregroundBlur"/>
</filter>
<filter id="filter6_f" x="260" y="502" width="14" height="14" filterUnits="userSpaceOnUse" color-interpolation-filters="sRGB">
<feFlood flood-opacity="0" result="BackgroundImageFix"/>
<feBlend mode="normal" in="SourceGraphic" in2="BackgroundImageFix" result="shape"/>
<feGaussianBlur stdDeviation="1" result="effect1_foregroundBlur"/>
</filter>
<filter id="filter7_f" x="110" y="295" width="14" height="14" filterUnits="userSpaceOnUse" color-interpolation-filters="sRGB">
<feFlood flood-opacity="0" result="BackgroundImageFix"/>
<feBlend mode="normal" in="SourceGraphic" in2="BackgroundImageFix" result="shape"/>
<feGaussianBlur stdDeviation="1" result="effect1_foregroundBlur"/>
</filter>
<filter id="filter8_f" x="598" y="43" width="16" height="16" filterUnits="userSpaceOnUse" color-interpolation-filters="sRGB">
<feFlood flood-opacity="0" result="BackgroundImageFix"/>
<feBlend mode="normal" in="SourceGraphic" in2="BackgroundImageFix" result="shape"/>
<feGaussianBlur stdDeviation="1.5" result="effect1_foregroundBlur"/>
</filter>
<filter id="filter9_f" x="171" y="155" width="14" height="14" filterUnits="userSpaceOnUse" color-interpolation-filters="sRGB">
<feFlood flood-opacity="0" result="BackgroundImageFix"/>
<feBlend mode="normal" in="SourceGraphic" in2="BackgroundImageFix" result="shape"/>
<feGaussianBlur stdDeviation="1" result="effect1_foregroundBlur"/>
</filter>
<filter id="filter10_f" x="105" y="688" width="14" height="14" filterUnits="userSpaceOnUse" color-interpolation-filters="sRGB">
<feFlood flood-opacity="0" result="BackgroundImageFix"/>
<feBlend mode="normal" in="SourceGraphic" in2="BackgroundImageFix" result="shape"/>
<feGaussianBlur stdDeviation="1" result="effect1_foregroundBlur"/>
</filter>
<filter id="filter11_f" x="778" y="486" width="9" height="9" filterUnits="userSpaceOnUse" color-interpolation-filters="sRGB">
<feFlood flood-opacity="0" result="BackgroundImageFix"/>
<feBlend mode="normal" in="SourceGraphic" in2="BackgroundImageFix" result="shape"/>
<feGaussianBlur stdDeviation="1" result="effect1_foregroundBlur"/>
</filter>
<filter id="filter12_f" x="872" y="143" width="9" height="9" filterUnits="userSpaceOnUse" color-interpolation-filters="sRGB">
<feFlood flood-opacity="0" result="BackgroundImageFix"/>
<feBlend mode="normal" in="SourceGraphic" in2="BackgroundImageFix" result="shape"/>
<feGaussianBlur stdDeviation="1" result="effect1_foregroundBlur"/>
</filter>
<filter id="filter13_f" x="999" y="549" width="9" height="9" filterUnits="userSpaceOnUse" color-interpolation-filters="sRGB">
<feFlood flood-opacity="0" result="BackgroundImageFix"/>
<feBlend mode="normal" in="SourceGraphic" in2="BackgroundImageFix" result="shape"/>
<feGaussianBlur stdDeviation="1" result="effect1_foregroundBlur"/>
</filter>
<filter id="filter14_f" x="575" y="576" width="9" height="9" filterUnits="userSpaceOnUse" color-interpolation-filters="sRGB">
<feFlood flood-opacity="0" result="BackgroundImageFix"/>
<feBlend mode="normal" in="SourceGraphic" in2="BackgroundImageFix" result="shape"/>
<feGaussianBlur stdDeviation="1" result="effect1_foregroundBlur"/>
</filter>
<filter id="filter15_f" x="733" y="259" width="9" height="9" filterUnits="userSpaceOnUse" color-interpolation-filters="sRGB">
<feFlood flood-opacity="0" result="BackgroundImageFix"/>
<feBlend mode="normal" in="SourceGraphic" in2="BackgroundImageFix" result="shape"/>
<feGaussianBlur stdDeviation="1" result="effect1_foregroundBlur"/>
</filter>
<filter id="filter16_f" x="825" y="750" width="17" height="17" filterUnits="userSpaceOnUse" color-interpolation-filters="sRGB">
<feFlood flood-opacity="0" result="BackgroundImageFix"/>
<feBlend mode="normal" in="SourceGraphic" in2="BackgroundImageFix" result="shape"/>
<feGaussianBlur stdDeviation="3" result="effect1_foregroundBlur"/>
</filter>
<filter id="filter17_f" x="210" y="160" width="9" height="9" filterUnits="userSpaceOnUse" color-interpolation-filters="sRGB">
<feFlood flood-opacity="0" result="BackgroundImageFix"/>
<feBlend mode="normal" in="SourceGraphic" in2="BackgroundImageFix" result="shape"/>
<feGaussianBlur stdDeviation="1" result="effect1_foregroundBlur"/>
</filter>
<filter id="filter18_f" x="45" y="386" width="14" height="14" filterUnits="userSpaceOnUse" color-interpolation-filters="sRGB">
<feFlood flood-opacity="0" result="BackgroundImageFix"/>
<feBlend mode="normal" in="SourceGraphic" in2="BackgroundImageFix" result="shape"/>
<feGaussianBlur stdDeviation="1" result="effect1_foregroundBlur"/>
</filter>
<filter id="filter19_f" x="99" y="576" width="16" height="16" filterUnits="userSpaceOnUse" color-interpolation-filters="sRGB">
<feFlood flood-opacity="0" result="BackgroundImageFix"/>
<feBlend mode="normal" in="SourceGraphic" in2="BackgroundImageFix" result="shape"/>
<feGaussianBlur stdDeviation="1.5" result="effect1_foregroundBlur"/>
</filter>
<filter id="filter20_f" x="-11" y="149" width="14" height="14" filterUnits="userSpaceOnUse" color-interpolation-filters="sRGB">
<feFlood flood-opacity="0" result="BackgroundImageFix"/>
<feBlend mode="normal" in="SourceGraphic" in2="BackgroundImageFix" result="shape"/>
<feGaussianBlur stdDeviation="1" result="effect1_foregroundBlur"/>
</filter>
<filter id="filter21_f" x="15" y="199" width="9" height="9" filterUnits="userSpaceOnUse" color-interpolation-filters="sRGB">
<feFlood flood-opacity="0" result="BackgroundImageFix"/>
<feBlend mode="normal" in="SourceGraphic" in2="BackgroundImageFix" result="shape"/>
<feGaussianBlur stdDeviation="1" result="effect1_foregroundBlur"/>
</filter>
<filter id="filter22_f" x="547" y="716" width="17" height="17" filterUnits="userSpaceOnUse" color-interpolation-filters="sRGB">
<feFlood flood-opacity="0" result="BackgroundImageFix"/>
<feBlend mode="normal" in="SourceGraphic" in2="BackgroundImageFix" result="shape"/>
<feGaussianBlur stdDeviation="3" result="effect1_foregroundBlur"/>
</filter>
<filter id="filter23_f" x="302" y="651" width="17" height="17" filterUnits="userSpaceOnUse" color-interpolation-filters="sRGB">
<feFlood flood-opacity="0" result="BackgroundImageFix"/>
<feBlend mode="normal" in="SourceGraphic" in2="BackgroundImageFix" result="shape"/>
<feGaussianBlur stdDeviation="3" result="effect1_foregroundBlur"/>
</filter>
<filter id="filter24_f" x="945" y="146" width="14" height="14" filterUnits="userSpaceOnUse" color-interpolation-filters="sRGB">
<feFlood flood-opacity="0" result="BackgroundImageFix"/>
<feBlend mode="normal" in="SourceGraphic" in2="BackgroundImageFix" result="shape"/>
<feGaussianBlur stdDeviation="1" result="effect1_foregroundBlur"/>
</filter>
<filter id="filter25_f" x="910" y="270" width="14" height="14" filterUnits="userSpaceOnUse" color-interpolation-filters="sRGB">
<feFlood flood-opacity="0" result="BackgroundImageFix"/>
<feBlend mode="normal" in="SourceGraphic" in2="BackgroundImageFix" result="shape"/>
<feGaussianBlur stdDeviation="1" result="effect1_foregroundBlur"/>
</filter>
<filter id="filter26_f" x="759" y="-9.00003" width="14" height="14" filterUnits="userSpaceOnUse" color-interpolation-filters="sRGB">
<feFlood flood-opacity="0" result="BackgroundImageFix"/>
<feBlend mode="normal" in="SourceGraphic" in2="BackgroundImageFix" result="shape"/>
<feGaussianBlur stdDeviation="1" result="effect1_foregroundBlur"/>
</filter>
<filter id="filter27_f" x="653" y="193" width="17" height="17" filterUnits="userSpaceOnUse" color-interpolation-filters="sRGB">
<feFlood flood-opacity="0" result="BackgroundImageFix"/>
<feBlend mode="normal" in="SourceGraphic" in2="BackgroundImageFix" result="shape"/>
<feGaussianBlur stdDeviation="3" result="effect1_foregroundBlur"/>
</filter>
<filter id="filter28_f" x="648" y="465" width="17" height="17" filterUnits="userSpaceOnUse" color-interpolation-filters="sRGB">
<feFlood flood-opacity="0" result="BackgroundImageFix"/>
<feBlend mode="normal" in="SourceGraphic" in2="BackgroundImageFix" result="shape"/>
<feGaussianBlur stdDeviation="3" result="effect1_foregroundBlur"/>
</filter>
<filter id="filter29_f" x="569" y="750" width="17" height="17" filterUnits="userSpaceOnUse" color-interpolation-filters="sRGB">
<feFlood flood-opacity="0" result="BackgroundImageFix"/>
<feBlend mode="normal" in="SourceGraphic" in2="BackgroundImageFix" result="shape"/>
<feGaussianBlur stdDeviation="3" result="effect1_foregroundBlur"/>
</filter>
<filter id="filter30_f" x="694" y="711" width="17" height="17" filterUnits="userSpaceOnUse" color-interpolation-filters="sRGB">
<feFlood flood-opacity="0" result="BackgroundImageFix"/>
<feBlend mode="normal" in="SourceGraphic" in2="BackgroundImageFix" result="shape"/>
<feGaussianBlur stdDeviation="3" result="effect1_foregroundBlur"/>
</filter>
<filter id="filter31_d" x="325" y="385" width="375" height="375" filterUnits="userSpaceOnUse" color-interpolation-filters="sRGB">
<feFlood flood-opacity="0" result="BackgroundImageFix"/>
<feColorMatrix in="SourceAlpha" type="matrix" values="0 0 0 0 0 0 0 0 0 0 0 0 0 0 0 0 0 0 127 0"/>
<feOffset/>
<feGaussianBlur stdDeviation="50"/>
<feColorMatrix type="matrix" values="0 0 0 0 0.795833 0 0 0 0 0.33425 0 0 0 0 0 0 0 0 0.75 0"/>
<feBlend mode="normal" in2="BackgroundImageFix" result="effect1_dropShadow"/>
<feBlend mode="normal" in="SourceGraphic" in2="effect1_dropShadow" result="shape"/>
</filter>
<filter id="filter32_d" x="-1494.86" y="581.437" width="4013.72" height="201.562" filterUnits="userSpaceOnUse" color-interpolation-filters="sRGB">
<feFlood flood-opacity="0" result="BackgroundImageFix"/>
<feColorMatrix in="SourceAlpha" type="matrix" values="0 0 0 0 0 0 0 0 0 0 0 0 0 0 0 0 0 0 127 0"/>
<feOffset/>
<feGaussianBlur stdDeviation="7.5"/>
<feColorMatrix type="matrix" values="0 0 0 0 1 0 0 0 0 0 0 0 0 0 0.78 0 0 0 1 0"/>
<feBlend mode="normal" in2="BackgroundImageFix" result="effect1_dropShadow"/>
<feBlend mode="normal" in="SourceGraphic" in2="effect1_dropShadow" result="shape"/>
</filter>
<linearGradient id="paint0_linear" x1="512" y1="0" x2="512" y2="768" gradientUnits="userSpaceOnUse">
<stop stop-color="#09001D"/>
<stop offset="0.582589" stop-color="#4E0695"/>
<stop offset="1" stop-color="#9F29C9"/>
</linearGradient>
<linearGradient id="paint1_linear" x1="512.5" y1="485" x2="512.5" y2="660" gradientUnits="userSpaceOnUse">
<stop stop-color="white" stop-opacity="0"/>
<stop offset="0.535714" stop-color="#FF0000" stop-opacity="0.453125"/>
<stop offset="0.874256" stop-color="#FF008A" stop-opacity="0.75"/>
</linearGradient>
<linearGradient id="paint2_linear" x1="512.5" y1="485" x2="512.5" y2="660" gradientUnits="userSpaceOnUse">
<stop stop-color="white" stop-opacity="0"/>
<stop offset="0.535714" stop-color="#FF0000" stop-opacity="0.453125"/>
<stop offset="0.874256" stop-color="#FF008A" stop-opacity="0.75"/>
</linearGradient>
<linearGradient id="paint3_linear" x1="512.5" y1="485" x2="512.5" y2="660" gradientUnits="userSpaceOnUse">
<stop stop-color="white" stop-opacity="0"/>
<stop offset="0.535714" stop-color="#FF0000" stop-opacity="0.453125"/>
<stop offset="0.874256" stop-color="#FF008A" stop-opacity="0.75"/>
</linearGradient>
<linearGradient id="paint4_linear" x1="512.5" y1="485" x2="512.5" y2="660" gradientUnits="userSpaceOnUse">
<stop stop-color="white" stop-opacity="0"/>
<stop offset="0.535714" stop-color="#FF0000" stop-opacity="0.453125"/>
<stop offset="0.874256" stop-color="#FF008A" stop-opacity="0.75"/>
</linearGradient>
<linearGradient id="paint5_linear" x1="512.5" y1="485" x2="512.5" y2="660" gradientUnits="userSpaceOnUse">
<stop stop-color="white" stop-opacity="0"/>
<stop offset="0.535714" stop-color="#FF0000" stop-opacity="0.453125"/>
<stop offset="0.874256" stop-color="#FF008A" stop-opacity="0.75"/>
</linearGradient>
<linearGradient id="paint6_linear" x1="512.5" y1="485" x2="512.5" y2="660" gradientUnits="userSpaceOnUse">
<stop stop-color="white" stop-opacity="0"/>
<stop offset="0.535714" stop-color="#FF0000" stop-opacity="0.453125"/>
<stop offset="0.874256" stop-color="#FF008A" stop-opacity="0.75"/>
</linearGradient>
<linearGradient id="paint7_linear" x1="512.5" y1="485" x2="512.5" y2="660" gradientUnits="userSpaceOnUse">
<stop stop-color="white" stop-opacity="0"/>
<stop offset="0.535714" stop-color="#FF0000" stop-opacity="0.453125"/>
<stop offset="0.874256" stop-color="#FF008A" stop-opacity="0.75"/>
</linearGradient>
<linearGradient id="paint8_linear" x1="512" y1="668" x2="512" y2="768" gradientUnits="userSpaceOnUse">
<stop stop-color="#007EF2"/>
<stop offset="1" stop-opacity="0"/>
</linearGradient>
<linearGradient id="paint9_linear" x1="511.75" y1="599" x2="511.75" y2="668" gradientUnits="userSpaceOnUse">
<stop offset="0.566964" stop-color="#0E0671" stop-opacity="0.29"/>
<stop offset="1" stop-color="#00A3FF" stop-opacity="0.4"/>
</linearGradient>
<linearGradient id="paint10_linear" x1="512.5" y1="556" x2="512.5" y2="800" gradientUnits="userSpaceOnUse">
<stop stop-color="white" stop-opacity="0"/>
<stop offset="0.395089" stop-color="#FF2AF6" stop-opacity="0.24"/>
<stop offset="0.457589" stop-color="white" stop-opacity="0.66"/>
<stop offset="0.588584" stop-color="#FF4CF8" stop-opacity="0.35"/>
<stop offset="1" stop-color="white" stop-opacity="0"/>
</linearGradient>
<clipPath id="clip0">
<rect width="1024" height="768" fill="white"/>
</clipPath>
<clipPath id="clip1">
<rect width="1024" height="768" fill="white"/>
</clipPath>
<clipPath id="clip2">
<rect width="1024" height="100" fill="white" transform="translate(0 668)"/>
</clipPath>
<clipPath id="clip3">
<rect width="1024" height="69" fill="white" transform="translate(0 599)"/>
</clipPath>
</defs>
</svg>
