<svg width="1920" height="1080" viewBox="0 0 1920 1080" fill="none" xmlns="http://www.w3.org/2000/svg">
<rect width="1920" height="1080" fill="url(#paint0_linear_102_1369)"/>
<g filter="url(#filter0_f_102_1369)">
<path d="M586 1035L587.35 1038.65L591 1040L587.35 1041.35L586 1045L584.65 1041.35L581 1040L584.65 1038.65L586 1035Z" fill="white"/>
</g>
<g filter="url(#filter1_f_102_1369)">
<path d="M873 410L874.35 413.65L878 415L874.35 416.35L873 420L871.65 416.35L868 415L871.65 413.65L873 410Z" fill="white"/>
</g>
<g filter="url(#filter2_f_102_1369)">
<path d="M1296 887L1297.35 890.65L1301 892L1297.35 893.35L1296 897L1294.65 893.35L1291 892L1294.65 890.65L1296 887Z" fill="white"/>
</g>
<g filter="url(#filter3_f_102_1369)">
<path d="M1074 184L1075.35 187.65L1079 189L1075.35 190.35L1074 194L1072.65 190.35L1069 189L1072.65 187.65L1074 184Z" fill="white"/>
</g>
<g filter="url(#filter4_f_102_1369)">
<path d="M1471 734L1472.35 737.65L1476 739L1472.35 740.35L1471 744L1469.65 740.35L1466 739L1469.65 737.65L1471 734Z" fill="white"/>
</g>
<g filter="url(#filter5_f_102_1369)">
<path d="M1061 992L1062.35 995.65L1066 997L1062.35 998.35L1061 1002L1059.65 998.35L1056 997L1059.65 995.65L1061 992Z" fill="white"/>
</g>
<g filter="url(#filter6_f_102_1369)">
<path d="M901 147L902.35 150.65L906 152L902.35 153.35L901 157L899.65 153.35L896 152L899.65 150.65L901 147Z" fill="white"/>
</g>
<g filter="url(#filter7_f_102_1369)">
<path d="M965 539L966.35 542.65L970 544L966.35 545.35L965 549L963.65 545.35L960 544L963.65 542.65L965 539Z" fill="white"/>
</g>
<g filter="url(#filter8_f_102_1369)">
<path d="M745 27L746.35 30.6495L750 32L746.35 33.3505L745 37L743.65 33.3505L740 32L743.65 30.6495L745 27Z" fill="white"/>
</g>
<g filter="url(#filter9_f_102_1369)">
<path d="M715 660L716.35 663.65L720 665L716.35 666.35L715 670L713.65 666.35L710 665L713.65 663.65L715 660Z" fill="white"/>
</g>
<g filter="url(#filter10_f_102_1369)">
<path d="M565 453L566.35 456.65L570 458L566.35 459.35L565 463L563.65 459.35L560 458L563.65 456.65L565 453Z" fill="white"/>
</g>
<g filter="url(#filter11_f_102_1369)">
<path d="M1054 202L1055.35 205.65L1059 207L1055.35 208.35L1054 212L1052.65 208.35L1049 207L1052.65 205.65L1054 202Z" fill="white"/>
</g>
<g filter="url(#filter12_f_102_1369)">
<path d="M626 313L627.35 316.65L631 318L627.35 319.35L626 323L624.65 319.35L621 318L624.65 316.65L626 313Z" fill="white"/>
</g>
<g filter="url(#filter13_f_102_1369)">
<path d="M560 846L561.35 849.65L565 851L561.35 852.35L560 856L558.65 852.35L555 851L558.65 849.65L560 846Z" fill="white"/>
</g>
<g filter="url(#filter14_f_102_1369)">
<circle cx="1230.5" cy="646.5" r="2.5" fill="#FFFCA8"/>
</g>
<g filter="url(#filter15_f_102_1369)">
<circle cx="1324.5" cy="303.5" r="2.5" fill="#FFFCA8"/>
</g>
<g filter="url(#filter16_f_102_1369)">
<circle cx="1451.5" cy="709.5" r="2.5" fill="#FFFCA8"/>
</g>
<g filter="url(#filter17_f_102_1369)">
<circle cx="1027.5" cy="736.5" r="2.5" fill="#FFFCA8"/>
</g>
<g filter="url(#filter18_f_102_1369)">
<circle cx="763.5" cy="955.5" r="2.5" fill="#FFFCA8"/>
</g>
<g filter="url(#filter19_f_102_1369)">
<circle cx="1185.5" cy="419.5" r="2.5" fill="#FFFCA8"/>
</g>
<g filter="url(#filter20_f_102_1369)">
<circle cx="1320.5" cy="1039.5" r="2.5" fill="#FFFCA8"/>
</g>
<g filter="url(#filter21_f_102_1369)">
<circle cx="1281.5" cy="914.5" r="2.5" fill="#FFFCA8"/>
</g>
<g filter="url(#filter22_f_102_1369)">
<path d="M192 561L193.35 564.65L197 566L193.35 567.35L192 571L190.65 567.35L187 566L190.65 564.65L192 561Z" fill="white"/>
</g>
<g filter="url(#filter23_f_102_1369)">
<path d="M27 338L28.3505 341.65L32 343L28.3505 344.35L27 348L25.6495 344.35L22 343L25.6495 341.65L27 338Z" fill="white"/>
</g>
<g filter="url(#filter24_f_102_1369)">
<path d="M531 103L532.35 106.65L536 108L532.35 109.35L531 113L529.65 109.35L526 108L529.65 106.65L531 103Z" fill="white"/>
</g>
<g filter="url(#filter25_f_102_1369)">
<path d="M103 214L104.35 217.65L108 219L104.35 220.35L103 224L101.65 220.35L98 219L101.65 217.65L103 214Z" fill="white"/>
</g>
<g filter="url(#filter26_f_102_1369)">
<path d="M37 747L38.3505 750.65L42 752L38.3505 753.35L37 757L35.6495 753.35L32 752L35.6495 750.65L37 747Z" fill="white"/>
</g>
<g filter="url(#filter27_f_102_1369)">
<circle cx="240.5" cy="856.5" r="2.5" fill="#FFFCA8"/>
</g>
<g filter="url(#filter28_f_102_1369)">
<circle cx="662.5" cy="320.5" r="2.5" fill="#FFFCA8"/>
</g>
<g filter="url(#filter29_f_102_1369)">
<path d="M505 549L501.35 550.35L500 554L498.65 550.35L495 549L498.65 547.65L500 544L501.35 547.65L505 549Z" fill="white"/>
</g>
<g filter="url(#filter30_f_102_1369)">
<path d="M102 401L98.3505 402.35L97 406L95.6495 402.35L92 401L95.6495 399.65L97 396L98.3505 399.65L102 401Z" fill="white"/>
</g>
<g filter="url(#filter31_f_102_1369)">
<path d="M560 740L556.35 741.35L555 745L553.65 741.35L550 740L553.65 738.65L555 735L556.35 738.65L560 740Z" fill="white"/>
</g>
<g filter="url(#filter32_f_102_1369)">
<path d="M449 312L445.35 313.35L444 317L442.65 313.35L439 312L442.65 310.65L444 307L445.35 310.65L449 312Z" fill="white"/>
</g>
<g filter="url(#filter33_f_102_1369)">
<circle cx="467.5" cy="359.5" r="2.5" transform="rotate(90 467.5 359.5)" fill="#FFFCA8"/>
</g>
<g filter="url(#filter34_f_102_1369)">
<circle cx="1003.5" cy="880.5" r="2.5" fill="#FFFCA8"/>
</g>
<g filter="url(#filter35_f_102_1369)">
<circle cx="758.5" cy="815.5" r="2.5" fill="#FFFCA8"/>
</g>
<g filter="url(#filter36_f_102_1369)">
<path d="M1405 309L1401.35 310.35L1400 314L1398.65 310.35L1395 309L1398.65 307.65L1400 304L1401.35 307.65L1405 309Z" fill="white"/>
</g>
<g filter="url(#filter37_f_102_1369)">
<path d="M1365 428L1366.35 431.65L1370 433L1366.35 434.35L1365 438L1363.65 434.35L1360 433L1363.65 431.65L1365 428Z" fill="white"/>
</g>
<g filter="url(#filter38_f_102_1369)">
<path d="M1788 905L1789.35 908.65L1793 910L1789.35 911.35L1788 915L1786.65 911.35L1783 910L1786.65 908.65L1788 905Z" fill="white"/>
</g>
<g filter="url(#filter39_f_102_1369)">
<path d="M1551 649L1552.35 652.65L1556 654L1552.35 655.35L1551 659L1549.65 655.35L1546 654L1549.65 652.65L1551 649Z" fill="white"/>
</g>
<g filter="url(#filter40_f_102_1369)">
<circle cx="1677.5" cy="437.5" r="2.5" fill="#FFFCA8"/>
</g>
<g filter="url(#filter41_f_102_1369)">
<path d="M1897 327L1893.35 328.35L1892 332L1890.65 328.35L1887 327L1890.65 325.65L1892 322L1893.35 325.65L1897 327Z" fill="white"/>
</g>
<g filter="url(#filter42_f_102_1369)">
<path d="M1628 144L1624.35 145.35L1623 149L1621.65 145.35L1618 144L1621.65 142.65L1623 139L1624.35 142.65L1628 144Z" fill="white"/>
</g>
<g filter="url(#filter43_f_102_1369)">
<path d="M1863 648L1859.35 649.351L1858 653L1856.65 649.351L1853 648L1856.65 646.65L1858 643L1859.35 646.65L1863 648Z" fill="white"/>
</g>
<g filter="url(#filter44_f_102_1369)">
<path d="M1752 220L1748.35 221.35L1747 225L1745.65 221.35L1742 220L1745.65 218.65L1747 215L1748.35 218.65L1752 220Z" fill="white"/>
</g>
<g filter="url(#filter45_f_102_1369)">
<path d="M1219 154L1215.35 155.35L1214 159L1212.65 155.35L1209 154L1212.65 152.65L1214 149L1215.35 152.65L1219 154Z" fill="white"/>
</g>
<g filter="url(#filter46_f_102_1369)">
<circle cx="1109.5" cy="357.5" r="2.5" transform="rotate(90 1109.5 357.5)" fill="#FFFCA8"/>
</g>
<g filter="url(#filter47_f_102_1369)">
<circle cx="1104.5" cy="629.5" r="2.5" transform="rotate(90 1104.5 629.5)" fill="#FFFCA8"/>
</g>
<g filter="url(#filter48_f_102_1369)">
<circle cx="1636.5" cy="810.5" r="2.5" transform="rotate(90 1636.5 810.5)" fill="#FFFCA8"/>
</g>
<g filter="url(#filter49_f_102_1369)">
<circle cx="1025.5" cy="914.5" r="2.5" transform="rotate(90 1025.5 914.5)" fill="#FFFCA8"/>
</g>
<g filter="url(#filter50_f_102_1369)">
<circle cx="1150.5" cy="875.5" r="2.5" transform="rotate(90 1150.5 875.5)" fill="#FFFCA8"/>
</g>
<g filter="url(#filter51_d_102_1369)">
<circle cx="960" cy="680" r="200" fill="black" fill-opacity="0.01"/>
</g>
<path d="M1159.52 694C1159.84 689.375 1160 684.706 1160 680C1160 678.998 1159.99 677.998 1159.98 677L760.022 677C760.007 677.998 760 678.998 760 680C760 684.706 760.163 689.375 760.482 694L1159.52 694Z" fill="#FFE600"/>
<path d="M1159.52 694C1159.84 689.375 1160 684.706 1160 680C1160 678.998 1159.99 677.998 1159.98 677L760.022 677C760.007 677.998 760 678.998 760 680C760 684.706 760.163 689.375 760.482 694L1159.52 694Z" fill="url(#paint1_linear_102_1369)"/>
<path d="M1159.01 700L760.988 700C761.558 705.742 762.37 711.412 763.416 717L1156.58 717C1157.63 711.412 1158.44 705.742 1159.01 700Z" fill="#FFE600"/>
<path d="M1159.01 700L760.988 700C761.558 705.742 762.37 711.412 763.416 717L1156.58 717C1157.63 711.412 1158.44 705.742 1159.01 700Z" fill="url(#paint2_linear_102_1369)"/>
<path d="M1154.92 725L765.083 725C766.25 730.077 767.611 735.079 769.156 740L1150.84 740C1152.39 735.079 1153.75 730.077 1154.92 725Z" fill="#FFE600"/>
<path d="M1154.92 725L765.083 725C766.25 730.077 767.611 735.079 769.156 740L1150.84 740C1152.39 735.079 1153.75 730.077 1154.92 725Z" fill="url(#paint3_linear_102_1369)"/>
<path d="M1147.41 750L772.592 750C774.24 754.409 776.039 758.745 777.982 763L1142.02 763C1143.96 758.745 1145.76 754.409 1147.41 750Z" fill="#FFE600"/>
<path d="M1147.41 750L772.592 750C774.24 754.409 776.039 758.745 777.982 763L1142.02 763C1143.96 758.745 1145.76 754.409 1147.41 750Z" fill="url(#paint4_linear_102_1369)"/>
<path d="M1136.04 775L783.959 775C785.982 778.74 788.12 782.408 790.369 786L1129.63 786C1131.88 782.408 1134.02 778.74 1136.04 775Z" fill="#FFE600"/>
<path d="M1136.04 775L783.959 775C785.982 778.74 788.12 782.408 790.369 786L1129.63 786C1131.88 782.408 1134.02 778.74 1136.04 775Z" fill="url(#paint5_linear_102_1369)"/>
<path d="M1120.01 800L799.985 800C802.291 803.07 804.683 806.071 807.158 809L1112.84 809C1115.32 806.071 1117.71 803.07 1120.01 800Z" fill="#FFE600"/>
<path d="M1120.01 800L799.985 800C802.291 803.07 804.683 806.071 807.158 809L1112.84 809C1115.32 806.071 1117.71 803.07 1120.01 800Z" fill="url(#paint6_linear_102_1369)"/>
<path d="M1097.75 825L822.25 825C824.775 827.4 827.362 829.734 830.01 832L1089.99 832C1092.64 829.734 1095.23 827.4 1097.75 825Z" fill="#FFE600"/>
<path d="M1097.75 825L822.25 825C824.775 827.4 827.362 829.734 830.01 832L1089.99 832C1092.64 829.734 1095.23 827.4 1097.75 825Z" fill="url(#paint7_linear_102_1369)"/>
<path d="M1065.41 850L854.592 850C857.383 851.734 860.22 853.402 863.1 855L1056.9 855C1059.78 853.402 1062.62 851.734 1065.41 850Z" fill="#FFE600"/>
<path d="M1065.41 850L854.592 850C857.383 851.734 860.22 853.402 863.1 855L1056.9 855C1059.78 853.402 1062.62 851.734 1065.41 850Z" fill="url(#paint8_linear_102_1369)"/>
<path d="M1004.64 875H915.362C929.715 878.272 944.656 880 960 880C975.344 880 990.285 878.272 1004.64 875Z" fill="#FFE600"/>
<path d="M1004.64 875H915.362C929.715 878.272 944.656 880 960 880C975.344 880 990.285 878.272 1004.64 875Z" fill="url(#paint9_linear_102_1369)"/>
<path d="M760.12 673L1159.88 673C1156.19 565.785 1068.11 480 960 480C851.886 480 763.808 565.785 760.12 673Z" fill="#FFE600"/>
<path d="M760.12 673L1159.88 673C1156.19 565.785 1068.11 480 960 480C851.886 480 763.808 565.785 760.12 673Z" fill="url(#paint10_linear_102_1369)"/>
<g clip-path="url(#clip0_102_1369)">
<rect y="930" width="1920" height="150" fill="#002F49"/>
<rect y="930" width="1920" height="150" fill="url(#paint11_linear_102_1369)"/>
<g filter="url(#filter52_d_102_1369)">
<path fill-rule="evenodd" clip-rule="evenodd" d="M960 822.656L873.397 1080H1046.6L960 822.656ZM960 837.698L879.248 1077.66H1040.75L960 837.698Z" fill="#FEEFFF"/>
<path fill-rule="evenodd" clip-rule="evenodd" d="M960 822.656L700.192 1080H1219.81L960 822.656ZM960 828.135L708.09 1077.66H1211.91L960 828.135Z" fill="#FEEFFF"/>
<path fill-rule="evenodd" clip-rule="evenodd" d="M960 822.656L526.987 1080H1393.01L960 822.656ZM960 826.441L537.299 1077.66H1382.7L960 826.441Z" fill="#FEEFFF"/>
<path fill-rule="evenodd" clip-rule="evenodd" d="M960 825.818L366.752 1077.66H1553.25L960 825.818ZM960 822.656L353.782 1080H1566.22L960 822.656Z" fill="#FEEFFF"/>
<path fill-rule="evenodd" clip-rule="evenodd" d="M960 825.523L196.358 1077.66H1723.64L960 825.523ZM960 822.656L180.577 1080H1739.42L960 822.656Z" fill="#FEEFFF"/>
<path fill-rule="evenodd" clip-rule="evenodd" d="M960 825.361L26.0618 1077.66H1893.94L960 825.361ZM960 822.656L7.37207 1080H1912.63L960 822.656Z" fill="#FEEFFF"/>
<path fill-rule="evenodd" clip-rule="evenodd" d="M960 825.264L-144.172 1077.66H2064.17L960 825.264ZM960 822.656L-165.833 1080H2085.83L960 822.656Z" fill="#FEEFFF"/>
<path fill-rule="evenodd" clip-rule="evenodd" d="M960 825.201L-314.363 1077.66H2234.36L960 825.201ZM960 822.656L-339.038 1080H2259.04L960 822.656Z" fill="#FEEFFF"/>
<path fill-rule="evenodd" clip-rule="evenodd" d="M960 825.158L-484.524 1077.66H2404.52L960 825.158ZM960 822.656L-512.243 1080H2432.24L960 822.656Z" fill="#FEEFFF"/>
<path fill-rule="evenodd" clip-rule="evenodd" d="M960 825.127L-654.664 1077.66H2574.66L960 825.127ZM960 822.656L-685.448 1080H2605.45L960 822.656Z" fill="#FEEFFF"/>
<path fill-rule="evenodd" clip-rule="evenodd" d="M960 825.104L-824.788 1077.66H2744.79L960 825.104ZM960 822.656L-858.653 1080H2778.65L960 822.656Z" fill="#FEEFFF"/>
<path fill-rule="evenodd" clip-rule="evenodd" d="M960 825.087L-994.9 1077.66H2914.9L960 825.087ZM960 822.656L-1031.86 1080H2951.86L960 822.656Z" fill="#FEEFFF"/>
<path fill-rule="evenodd" clip-rule="evenodd" d="M2660 1079.5L-740 1079.5L-740 1077.16L2660 1077.16L2660 1079.5Z" fill="#FEEFFF"/>
<path fill-rule="evenodd" clip-rule="evenodd" d="M2660 1053.76L-740 1053.76L-740 1051.41L2660 1051.41L2660 1053.76Z" fill="#FEEFFF"/>
<path fill-rule="evenodd" clip-rule="evenodd" d="M2660 1030.35L-740 1030.35L-740 1028.01L2660 1028.01L2660 1030.35Z" fill="#FEEFFF"/>
<path fill-rule="evenodd" clip-rule="evenodd" d="M2660 1009.29L-740 1009.29L-740 1006.94L2660 1006.94L2660 1009.29Z" fill="#FEEFFF"/>
<path fill-rule="evenodd" clip-rule="evenodd" d="M2660 990.563L-740 990.562L-740 988.219L2660 988.219L2660 990.563Z" fill="#FEEFFF"/>
<path fill-rule="evenodd" clip-rule="evenodd" d="M2660 974.179L-740 974.179L-740 971.835L2660 971.835L2660 974.179Z" fill="#FEEFFF"/>
<path fill-rule="evenodd" clip-rule="evenodd" d="M2660 960.135L-740 960.135L-740 957.792L2660 957.792L2660 960.135Z" fill="#FEEFFF"/>
<path fill-rule="evenodd" clip-rule="evenodd" d="M2660 948.433L-740 948.433L-740 946.089L2660 946.089L2660 948.433Z" fill="#FEEFFF"/>
<path fill-rule="evenodd" clip-rule="evenodd" d="M2660 939.07L-740 939.07L-740 936.727L2660 936.727L2660 939.07Z" fill="#FEEFFF"/>
<path fill-rule="evenodd" clip-rule="evenodd" d="M2660 932.049L-740 932.049L-740 929.705L2660 929.705L2660 932.049Z" fill="#FEEFFF"/>
</g>
</g>
<path d="M0 916.173L63.0821 870.5L82.1069 895.019L101.132 900.788L118.655 886.846L149.194 900.788L201.763 916.173L239.812 886.846L261.841 900.788L336.438 861.365L348.954 895.019L380.495 900.788L389.007 875.788L435.567 831.077L446.081 870.5L476.12 900.788L501.653 875.788L538.201 870.5L566.738 839.25L602.284 831.077L639.332 846.462L674.879 875.788L702.415 861.365L710.926 831.077L728.448 808H746.472L764.495 839.25L783.52 861.365L799.04 839.25L826.576 846.462L850.608 870.5L859.119 861.365L872.636 846.462L887.656 820.981H906.18L939.223 846.462L950.738 861.365H969.262L992.793 846.462L1008.31 870.5L1025.34 846.462L1054.87 831.077L1063.89 846.462L1084.91 861.365L1114.45 886.846L1135.48 892.615L1157.51 870.5L1194.56 839.25L1219.59 846.462L1252.13 820.981L1274.16 846.462L1307.2 875.788L1337.24 870.5L1366.78 886.846L1386.81 892.615L1412.34 861.365L1488.94 886.846L1514.97 881.558L1526.49 892.615C1530.83 896.141 1539.5 904.154 1539.5 908C1539.5 911.846 1549.18 909.603 1554.02 908L1564.54 892.615L1586.57 846.462L1638.13 861.365L1655.16 886.846L1679.19 881.558L1693.71 824.346L1712.73 855.596L1736.76 839.25H1757.79L1774.81 861.365L1796.84 908L1833.89 900.788L1850.41 881.558L1873.44 892.615L1893.47 908L1920 900.788V933H0V916.173Z" fill="black"/>
<path d="M0 916.173L63.0821 870.5L82.1069 895.019L101.132 900.788L118.655 886.846L149.194 900.788L201.763 916.173L239.812 886.846L261.841 900.788L336.438 861.365L348.954 895.019L380.495 900.788L389.007 875.788L435.567 831.077L446.081 870.5L476.12 900.788L501.653 875.788L538.201 870.5L566.738 839.25L602.284 831.077L639.332 846.462L674.879 875.788L702.415 861.365L710.926 831.077L728.448 808H746.472L764.495 839.25L783.52 861.365L799.04 839.25L826.576 846.462L850.608 870.5L859.119 861.365L872.636 846.462L887.656 820.981H906.18L939.223 846.462L950.738 861.365H969.262L992.793 846.462L1008.31 870.5L1025.34 846.462L1054.87 831.077L1063.89 846.462L1084.91 861.365L1114.45 886.846L1135.48 892.615L1157.51 870.5L1194.56 839.25L1219.59 846.462L1252.13 820.981L1274.16 846.462L1307.2 875.788L1337.24 870.5L1366.78 886.846L1386.81 892.615L1412.34 861.365L1488.94 886.846L1514.97 881.558L1526.49 892.615C1530.83 896.141 1539.5 904.154 1539.5 908C1539.5 911.846 1549.18 909.603 1554.02 908L1564.54 892.615L1586.57 846.462L1638.13 861.365L1655.16 886.846L1679.19 881.558L1693.71 824.346L1712.73 855.596L1736.76 839.25H1757.79L1774.81 861.365L1796.84 908L1833.89 900.788L1850.41 881.558L1873.44 892.615L1893.47 908L1920 900.788V933H0V916.173Z" fill="url(#paint12_linear_102_1369)"/>
<rect y="810" width="1920" height="270" fill="url(#paint13_linear_102_1369)"/>
<rect y="1062" width="1920" height="18" fill="black"/>
<path d="M1702.83 1066.85C1701.76 1066.85 1700.91 1067.19 1700.29 1067.88C1699.68 1068.57 1699.37 1069.51 1699.37 1070.71C1699.37 1071.93 1699.66 1072.88 1700.24 1073.55C1700.82 1074.23 1701.65 1074.57 1702.74 1074.57C1703.46 1074.57 1704.12 1074.47 1704.72 1074.29V1074.82C1704.15 1075.02 1703.44 1075.12 1702.6 1075.12C1701.39 1075.12 1700.45 1074.73 1699.75 1073.95C1699.06 1073.17 1698.72 1072.09 1698.72 1070.69C1698.72 1069.82 1698.88 1069.05 1699.21 1068.39C1699.54 1067.73 1700.02 1067.21 1700.63 1066.86C1701.25 1066.49 1701.97 1066.31 1702.79 1066.31C1703.63 1066.31 1704.38 1066.47 1705.04 1066.78L1704.8 1067.32C1704.17 1067.01 1703.52 1066.85 1702.83 1066.85ZM1711.75 1071.81C1711.75 1072.85 1711.5 1073.66 1710.99 1074.24C1710.49 1074.83 1709.79 1075.12 1708.91 1075.12C1708.35 1075.12 1707.86 1074.98 1707.43 1074.71C1707 1074.44 1706.68 1074.06 1706.45 1073.55C1706.22 1073.05 1706.11 1072.47 1706.11 1071.81C1706.11 1070.77 1706.36 1069.96 1706.87 1069.38C1707.37 1068.8 1708.06 1068.51 1708.94 1068.51C1709.82 1068.51 1710.5 1068.8 1711 1069.39C1711.5 1069.98 1711.75 1070.78 1711.75 1071.81ZM1706.72 1071.81C1706.72 1072.68 1706.91 1073.37 1707.29 1073.86C1707.68 1074.35 1708.23 1074.59 1708.93 1074.59C1709.63 1074.59 1710.18 1074.35 1710.56 1073.86C1710.95 1073.37 1711.14 1072.68 1711.14 1071.81C1711.14 1070.93 1710.94 1070.25 1710.55 1069.76C1710.17 1069.28 1709.62 1069.04 1708.92 1069.04C1708.21 1069.04 1707.67 1069.28 1707.29 1069.76C1706.91 1070.24 1706.72 1070.92 1706.72 1071.81ZM1716.24 1075.12C1715.26 1075.12 1714.54 1074.75 1714.09 1074.02H1714.05L1714.07 1074.51C1714.08 1074.8 1714.09 1075.11 1714.09 1075.46V1077.88H1713.51V1068.63H1714L1714.12 1069.54H1714.15C1714.59 1068.85 1715.29 1068.51 1716.25 1068.51C1717.11 1068.51 1717.76 1068.79 1718.21 1069.36C1718.66 1069.92 1718.89 1070.74 1718.89 1071.82C1718.89 1072.87 1718.65 1073.68 1718.18 1074.26C1717.7 1074.83 1717.06 1075.12 1716.24 1075.12ZM1716.22 1074.6C1716.88 1074.6 1717.38 1074.36 1717.74 1073.88C1718.1 1073.39 1718.28 1072.71 1718.28 1071.84C1718.28 1069.97 1717.6 1069.04 1716.25 1069.04C1715.51 1069.04 1714.96 1069.24 1714.61 1069.65C1714.27 1070.06 1714.09 1070.72 1714.09 1071.64V1071.83C1714.09 1072.83 1714.26 1073.54 1714.59 1073.96C1714.93 1074.39 1715.47 1074.6 1716.22 1074.6ZM1719.59 1068.63H1720.19L1721.54 1072.21C1721.95 1073.3 1722.21 1074.04 1722.32 1074.43H1722.35C1722.52 1073.92 1722.79 1073.17 1723.16 1072.17L1724.5 1068.63H1725.1L1722.25 1076.03C1722.02 1076.63 1721.82 1077.04 1721.67 1077.25C1721.51 1077.46 1721.33 1077.62 1721.12 1077.72C1720.91 1077.83 1720.66 1077.88 1720.36 1077.88C1720.14 1077.88 1719.89 1077.84 1719.62 1077.76V1077.26C1719.84 1077.32 1720.09 1077.35 1720.35 1077.35C1720.55 1077.35 1720.72 1077.3 1720.88 1077.21C1721.03 1077.12 1721.17 1076.97 1721.29 1076.77C1721.41 1076.57 1721.55 1076.26 1721.71 1075.83C1721.88 1075.41 1721.98 1075.13 1722.03 1075L1719.59 1068.63ZM1728.68 1068.51C1728.95 1068.51 1729.23 1068.54 1729.54 1068.59L1729.43 1069.15C1729.17 1069.08 1728.89 1069.05 1728.61 1069.05C1728.06 1069.05 1727.62 1069.28 1727.27 1069.74C1726.92 1070.2 1726.75 1070.78 1726.75 1071.48V1075H1726.17V1068.63H1726.66L1726.72 1069.78H1726.76C1727.02 1069.31 1727.3 1068.98 1727.6 1068.79C1727.89 1068.6 1728.25 1068.51 1728.68 1068.51ZM1731.42 1075H1730.84V1068.63H1731.42V1075ZM1730.76 1066.86C1730.76 1066.49 1730.88 1066.3 1731.13 1066.3C1731.25 1066.3 1731.35 1066.35 1731.41 1066.45C1731.48 1066.54 1731.52 1066.68 1731.52 1066.86C1731.52 1067.04 1731.48 1067.18 1731.41 1067.28C1731.35 1067.38 1731.25 1067.43 1731.13 1067.43C1730.88 1067.43 1730.76 1067.24 1730.76 1066.86ZM1738.53 1068.63V1069.04L1737.21 1069.12C1737.56 1069.55 1737.74 1070.04 1737.74 1070.56C1737.74 1071.17 1737.54 1071.67 1737.12 1072.05C1736.72 1072.43 1736.17 1072.62 1735.48 1072.62C1735.2 1072.62 1734.99 1072.61 1734.88 1072.59C1734.64 1072.71 1734.47 1072.85 1734.35 1073.01C1734.23 1073.18 1734.17 1073.35 1734.17 1073.54C1734.17 1073.74 1734.24 1073.89 1734.39 1073.98C1734.55 1074.07 1734.81 1074.12 1735.17 1074.12H1736.29C1736.98 1074.12 1737.51 1074.26 1737.88 1074.54C1738.24 1074.82 1738.43 1075.23 1738.43 1075.78C1738.43 1076.45 1738.15 1076.97 1737.61 1077.33C1737.06 1077.7 1736.29 1077.88 1735.28 1077.88C1734.48 1077.88 1733.86 1077.73 1733.42 1077.42C1732.98 1077.11 1732.76 1076.68 1732.76 1076.13C1732.76 1075.69 1732.89 1075.33 1733.16 1075.04C1733.44 1074.75 1733.81 1074.55 1734.27 1074.45C1734.08 1074.37 1733.93 1074.25 1733.81 1074.1C1733.7 1073.95 1733.64 1073.78 1733.64 1073.58C1733.64 1073.16 1733.91 1072.78 1734.45 1072.46C1734.08 1072.3 1733.79 1072.07 1733.59 1071.74C1733.38 1071.41 1733.28 1071.04 1733.28 1070.62C1733.28 1069.98 1733.48 1069.47 1733.88 1069.09C1734.29 1068.7 1734.83 1068.51 1735.52 1068.51C1735.94 1068.51 1736.26 1068.55 1736.49 1068.63H1738.53ZM1733.38 1076.08C1733.38 1076.95 1734.03 1077.39 1735.33 1077.39C1737 1077.39 1737.83 1076.86 1737.83 1075.79C1737.83 1075.41 1737.7 1075.13 1737.44 1074.96C1737.18 1074.79 1736.76 1074.7 1736.17 1074.7H1735.13C1733.96 1074.7 1733.38 1075.16 1733.38 1076.08ZM1733.86 1070.62C1733.86 1071.11 1734.01 1071.49 1734.31 1071.77C1734.61 1072.04 1735.01 1072.17 1735.51 1072.17C1736.04 1072.17 1736.45 1072.04 1736.73 1071.77C1737.01 1071.5 1737.15 1071.11 1737.15 1070.59C1737.15 1070.05 1737.01 1069.64 1736.71 1069.38C1736.43 1069.1 1736.02 1068.96 1735.5 1068.96C1734.99 1068.96 1734.59 1069.11 1734.29 1069.4C1734.01 1069.69 1733.86 1070.1 1733.86 1070.62ZM1744.29 1075V1070.87C1744.29 1070.23 1744.15 1069.76 1743.88 1069.47C1743.61 1069.18 1743.19 1069.04 1742.63 1069.04C1741.87 1069.04 1741.31 1069.23 1740.95 1069.62C1740.6 1070 1740.42 1070.62 1740.42 1071.48V1075H1739.84V1065.88H1740.42V1068.78L1740.39 1069.6H1740.44C1740.67 1069.21 1740.97 1068.94 1741.34 1068.77C1741.7 1068.59 1742.15 1068.51 1742.69 1068.51C1744.14 1068.51 1744.86 1069.28 1744.86 1070.83V1075H1744.29ZM1748.6 1074.6C1748.97 1074.6 1749.29 1074.57 1749.56 1074.51V1074.98C1749.28 1075.07 1748.96 1075.12 1748.59 1075.12C1748.03 1075.12 1747.61 1074.97 1747.34 1074.67C1747.08 1074.37 1746.95 1073.89 1746.95 1073.25V1069.13H1746V1068.79L1746.95 1068.53L1747.24 1067.09H1747.54V1068.63H1749.41V1069.13H1747.54V1073.17C1747.54 1073.65 1747.62 1074.02 1747.79 1074.25C1747.97 1074.48 1748.24 1074.6 1748.6 1074.6ZM1758.25 1068.6C1757.69 1068.6 1757.26 1068.79 1756.94 1069.16C1756.63 1069.53 1756.47 1070.04 1756.47 1070.71C1756.47 1071.43 1756.62 1071.97 1756.91 1072.32C1757.2 1072.66 1757.63 1072.84 1758.2 1072.84C1758.53 1072.84 1758.92 1072.75 1759.36 1072.59V1073.1C1758.96 1073.28 1758.56 1073.37 1758.14 1073.37C1757.41 1073.37 1756.85 1073.14 1756.45 1072.69C1756.05 1072.24 1755.86 1071.6 1755.86 1070.75C1755.86 1069.94 1756.07 1069.29 1756.51 1068.81C1756.94 1068.32 1757.52 1068.07 1758.25 1068.07C1758.71 1068.07 1759.16 1068.18 1759.58 1068.38L1759.36 1068.87C1758.98 1068.69 1758.61 1068.6 1758.25 1068.6ZM1753.58 1070.72C1753.58 1069.94 1753.77 1069.2 1754.16 1068.52C1754.55 1067.84 1755.09 1067.3 1755.78 1066.9C1756.46 1066.51 1757.2 1066.31 1757.98 1066.31C1758.77 1066.31 1759.5 1066.51 1760.18 1066.9C1760.87 1067.29 1761.4 1067.82 1761.8 1068.51C1762.19 1069.19 1762.39 1069.93 1762.39 1070.72C1762.39 1071.49 1762.2 1072.21 1761.82 1072.88C1761.44 1073.56 1760.91 1074.1 1760.23 1074.51C1759.54 1074.91 1758.8 1075.12 1757.98 1075.12C1757.18 1075.12 1756.43 1074.92 1755.75 1074.51C1755.06 1074.11 1754.53 1073.57 1754.15 1072.89C1753.77 1072.21 1753.58 1071.49 1753.58 1070.72ZM1754.12 1070.72C1754.12 1071.41 1754.29 1072.06 1754.64 1072.65C1754.99 1073.24 1755.46 1073.71 1756.05 1074.06C1756.64 1074.4 1757.29 1074.58 1757.98 1074.58C1758.68 1074.58 1759.32 1074.41 1759.91 1074.06C1760.51 1073.71 1760.98 1073.24 1761.32 1072.65C1761.67 1072.06 1761.85 1071.41 1761.85 1070.72C1761.85 1070.04 1761.68 1069.4 1761.34 1068.81C1761.01 1068.22 1760.54 1067.75 1759.94 1067.39C1759.34 1067.03 1758.69 1066.85 1757.98 1066.85C1757.3 1066.85 1756.65 1067.02 1756.06 1067.37C1755.46 1067.71 1754.99 1068.19 1754.64 1068.79C1754.3 1069.39 1754.12 1070.03 1754.12 1070.72ZM1771.43 1071.98H1767.95L1766.76 1075H1766.09L1769.54 1066.4H1769.92L1773.29 1075H1772.62L1771.43 1071.98ZM1768.17 1071.44H1771.23L1770.07 1068.35C1769.97 1068.11 1769.85 1067.77 1769.71 1067.34C1769.61 1067.72 1769.49 1068.06 1769.37 1068.36L1768.17 1071.44ZM1778.81 1075V1070.87C1778.81 1070.23 1778.67 1069.76 1778.4 1069.47C1778.13 1069.18 1777.72 1069.04 1777.15 1069.04C1776.39 1069.04 1775.83 1069.23 1775.47 1069.62C1775.12 1070 1774.95 1070.62 1774.95 1071.48V1075H1774.37V1068.63H1774.86L1774.97 1069.5H1775.01C1775.42 1068.84 1776.16 1068.51 1777.21 1068.51C1778.66 1068.51 1779.38 1069.28 1779.38 1070.83V1075H1778.81ZM1783.13 1074.6C1783.49 1074.6 1783.81 1074.57 1784.09 1074.51V1074.98C1783.81 1075.07 1783.48 1075.12 1783.12 1075.12C1782.55 1075.12 1782.14 1074.97 1781.87 1074.67C1781.6 1074.37 1781.47 1073.89 1781.47 1073.25V1069.13H1780.53V1068.79L1781.47 1068.53L1781.76 1067.09H1782.06V1068.63H1783.93V1069.13H1782.06V1073.17C1782.06 1073.65 1782.15 1074.02 1782.32 1074.25C1782.49 1074.48 1782.76 1074.6 1783.13 1074.6ZM1789.91 1075V1070.87C1789.91 1070.23 1789.77 1069.76 1789.5 1069.47C1789.23 1069.18 1788.81 1069.04 1788.25 1069.04C1787.49 1069.04 1786.93 1069.23 1786.57 1069.62C1786.22 1070 1786.04 1070.62 1786.04 1071.48V1075H1785.46V1065.88H1786.04V1068.78L1786.02 1069.6H1786.06C1786.29 1069.21 1786.6 1068.94 1786.96 1068.77C1787.32 1068.59 1787.77 1068.51 1788.31 1068.51C1789.76 1068.51 1790.48 1069.28 1790.48 1070.83V1075H1789.91ZM1797.81 1071.81C1797.81 1072.85 1797.56 1073.66 1797.05 1074.24C1796.55 1074.83 1795.86 1075.12 1794.97 1075.12C1794.41 1075.12 1793.92 1074.98 1793.49 1074.71C1793.07 1074.44 1792.74 1074.06 1792.51 1073.55C1792.29 1073.05 1792.17 1072.47 1792.17 1071.81C1792.17 1070.77 1792.43 1069.96 1792.93 1069.38C1793.43 1068.8 1794.12 1068.51 1795 1068.51C1795.88 1068.51 1796.56 1068.8 1797.06 1069.39C1797.56 1069.98 1797.81 1070.78 1797.81 1071.81ZM1792.78 1071.81C1792.78 1072.68 1792.97 1073.37 1793.36 1073.86C1793.74 1074.35 1794.29 1074.59 1794.99 1074.59C1795.7 1074.59 1796.24 1074.35 1796.62 1073.86C1797.01 1073.37 1797.2 1072.68 1797.2 1071.81C1797.2 1070.93 1797.01 1070.25 1796.62 1069.76C1796.23 1069.28 1795.68 1069.04 1794.98 1069.04C1794.28 1069.04 1793.73 1069.28 1793.35 1069.76C1792.97 1070.24 1792.78 1070.92 1792.78 1071.81ZM1804.02 1075V1070.87C1804.02 1070.23 1803.88 1069.76 1803.61 1069.47C1803.34 1069.18 1802.92 1069.04 1802.36 1069.04C1801.6 1069.04 1801.04 1069.23 1800.68 1069.62C1800.33 1070 1800.15 1070.62 1800.15 1071.48V1075H1799.57V1068.63H1800.07L1800.18 1069.5H1800.21C1800.63 1068.84 1801.36 1068.51 1802.42 1068.51C1803.87 1068.51 1804.59 1069.28 1804.59 1070.83V1075H1804.02ZM1805.59 1068.63H1806.18L1807.53 1072.21C1807.94 1073.3 1808.2 1074.04 1808.31 1074.43H1808.35C1808.51 1073.92 1808.78 1073.17 1809.15 1072.17L1810.5 1068.63H1811.09L1808.24 1076.03C1808.01 1076.63 1807.82 1077.04 1807.66 1077.25C1807.5 1077.46 1807.32 1077.62 1807.11 1077.72C1806.9 1077.83 1806.65 1077.88 1806.35 1077.88C1806.13 1077.88 1805.88 1077.84 1805.61 1077.76V1077.26C1805.84 1077.32 1806.08 1077.35 1806.34 1077.35C1806.54 1077.35 1806.72 1077.3 1806.87 1077.21C1807.02 1077.12 1807.16 1076.97 1807.28 1076.77C1807.4 1076.57 1807.55 1076.26 1807.71 1075.83C1807.87 1075.41 1807.98 1075.13 1808.02 1075L1805.59 1068.63ZM1821.93 1070.63C1821.93 1072.07 1821.55 1073.16 1820.8 1073.9C1820.04 1074.63 1818.94 1075 1817.47 1075H1815.42V1066.43H1817.74C1819.11 1066.43 1820.14 1066.79 1820.86 1067.51C1821.57 1068.22 1821.93 1069.26 1821.93 1070.63ZM1821.28 1070.66C1821.28 1069.43 1820.96 1068.51 1820.34 1067.89C1819.72 1067.27 1818.8 1066.96 1817.6 1066.96H1816.02V1074.47H1817.44C1820 1074.47 1821.28 1073.2 1821.28 1070.66ZM1826.26 1068.51C1826.53 1068.51 1826.82 1068.54 1827.12 1068.59L1827.01 1069.15C1826.75 1069.08 1826.47 1069.05 1826.19 1069.05C1825.64 1069.05 1825.2 1069.28 1824.85 1069.74C1824.5 1070.2 1824.33 1070.78 1824.33 1071.48V1075H1823.75V1068.63H1824.24L1824.3 1069.78H1824.34C1824.6 1069.31 1824.88 1068.98 1825.18 1068.79C1825.48 1068.6 1825.84 1068.51 1826.26 1068.51ZM1828.93 1068.63V1072.76C1828.93 1073.4 1829.06 1073.86 1829.33 1074.16C1829.6 1074.45 1830.02 1074.59 1830.59 1074.59C1831.35 1074.59 1831.9 1074.4 1832.26 1074.02C1832.62 1073.63 1832.8 1073.01 1832.8 1072.15V1068.63H1833.37V1075H1832.88L1832.77 1074.12H1832.74C1832.32 1074.79 1831.59 1075.12 1830.53 1075.12C1829.08 1075.12 1828.36 1074.34 1828.36 1072.79V1068.63H1828.93ZM1843.46 1075V1070.82C1843.46 1070.2 1843.34 1069.75 1843.1 1069.46C1842.86 1069.18 1842.48 1069.04 1841.98 1069.04C1841.33 1069.04 1840.85 1069.21 1840.54 1069.57C1840.22 1069.93 1840.07 1070.5 1840.07 1071.27V1075H1839.48V1070.65C1839.48 1069.57 1838.98 1069.04 1838 1069.04C1837.33 1069.04 1836.85 1069.23 1836.54 1069.62C1836.24 1070.01 1836.08 1070.63 1836.08 1071.48V1075H1835.5V1068.63H1835.98L1836.11 1069.5H1836.14C1836.32 1069.19 1836.57 1068.94 1836.89 1068.77C1837.22 1068.6 1837.57 1068.51 1837.96 1068.51C1838.97 1068.51 1839.61 1068.88 1839.9 1069.64H1839.92C1840.13 1069.28 1840.41 1069 1840.75 1068.8C1841.11 1068.61 1841.5 1068.51 1841.95 1068.51C1842.64 1068.51 1843.17 1068.69 1843.51 1069.06C1843.86 1069.44 1844.04 1070.03 1844.04 1070.83V1075H1843.46ZM1854.05 1075V1070.82C1854.05 1070.2 1853.93 1069.75 1853.69 1069.46C1853.45 1069.18 1853.08 1069.04 1852.58 1069.04C1851.93 1069.04 1851.44 1069.21 1851.13 1069.57C1850.82 1069.93 1850.66 1070.5 1850.66 1071.27V1075H1850.07V1070.65C1850.07 1069.57 1849.58 1069.04 1848.59 1069.04C1847.93 1069.04 1847.44 1069.23 1847.13 1069.62C1846.83 1070.01 1846.68 1070.63 1846.68 1071.48V1075H1846.1V1068.63H1846.58L1846.7 1069.5H1846.74C1846.91 1069.19 1847.16 1068.94 1847.49 1068.77C1847.81 1068.6 1848.17 1068.51 1848.56 1068.51C1849.56 1068.51 1850.21 1068.88 1850.49 1069.64H1850.52C1850.72 1069.28 1851 1069 1851.35 1068.8C1851.7 1068.61 1852.1 1068.51 1852.54 1068.51C1853.24 1068.51 1853.76 1068.69 1854.11 1069.06C1854.46 1069.44 1854.63 1070.03 1854.63 1070.83V1075H1854.05ZM1861.96 1071.81C1861.96 1072.85 1861.71 1073.66 1861.2 1074.24C1860.7 1074.83 1860 1075.12 1859.12 1075.12C1858.56 1075.12 1858.07 1074.98 1857.64 1074.71C1857.21 1074.44 1856.89 1074.06 1856.66 1073.55C1856.44 1073.05 1856.32 1072.47 1856.32 1071.81C1856.32 1070.77 1856.57 1069.96 1857.08 1069.38C1857.58 1068.8 1858.27 1068.51 1859.15 1068.51C1860.03 1068.51 1860.71 1068.8 1861.21 1069.39C1861.71 1069.98 1861.96 1070.78 1861.96 1071.81ZM1856.93 1071.81C1856.93 1072.68 1857.12 1073.37 1857.51 1073.86C1857.89 1074.35 1858.44 1074.59 1859.14 1074.59C1859.84 1074.59 1860.39 1074.35 1860.77 1073.86C1861.16 1073.37 1861.35 1072.68 1861.35 1071.81C1861.35 1070.93 1861.15 1070.25 1860.76 1069.76C1860.38 1069.28 1859.83 1069.04 1859.13 1069.04C1858.43 1069.04 1857.88 1069.28 1857.5 1069.76C1857.12 1070.24 1856.93 1070.92 1856.93 1071.81ZM1868.16 1075V1070.87C1868.16 1070.23 1868.03 1069.76 1867.76 1069.47C1867.49 1069.18 1867.07 1069.04 1866.51 1069.04C1865.74 1069.04 1865.19 1069.23 1864.83 1069.62C1864.48 1070 1864.3 1070.62 1864.3 1071.48V1075H1863.72V1068.63H1864.21L1864.33 1069.5H1864.36C1864.78 1068.84 1865.51 1068.51 1866.57 1068.51C1868.02 1068.51 1868.74 1069.28 1868.74 1070.83V1075H1868.16ZM1873.13 1068.51C1873.59 1068.51 1873.99 1068.59 1874.33 1068.76C1874.66 1068.93 1874.96 1069.21 1875.23 1069.62H1875.27C1875.24 1069.13 1875.23 1068.65 1875.23 1068.17V1065.88H1875.8V1075H1875.42L1875.28 1074.03H1875.23C1874.75 1074.75 1874.05 1075.12 1873.14 1075.12C1872.27 1075.12 1871.59 1074.84 1871.13 1074.3C1870.66 1073.75 1870.43 1072.95 1870.43 1071.91C1870.43 1070.8 1870.66 1069.96 1871.12 1069.38C1871.58 1068.8 1872.25 1068.51 1873.13 1068.51ZM1873.13 1069.04C1872.44 1069.04 1871.91 1069.28 1871.56 1069.77C1871.21 1070.26 1871.04 1070.96 1871.04 1071.89C1871.04 1073.7 1871.74 1074.6 1873.14 1074.6C1873.86 1074.6 1874.39 1074.39 1874.73 1073.97C1875.06 1073.56 1875.23 1072.87 1875.23 1071.91V1071.81C1875.23 1070.82 1875.06 1070.12 1874.73 1069.69C1874.4 1069.25 1873.87 1069.04 1873.13 1069.04ZM1878.61 1073.61L1878.68 1073.73C1878.39 1074.76 1878.05 1075.7 1877.66 1076.55H1877.28C1877.58 1075.47 1877.8 1074.49 1877.93 1073.61H1878.61ZM1888.6 1075H1883.24V1074.48L1885.52 1072.11C1886.16 1071.44 1886.61 1070.93 1886.87 1070.58C1887.12 1070.23 1887.31 1069.89 1887.44 1069.57C1887.56 1069.25 1887.62 1068.92 1887.62 1068.57C1887.62 1068.05 1887.45 1067.64 1887.11 1067.32C1886.78 1067 1886.34 1066.84 1885.81 1066.84C1885.09 1066.84 1884.41 1067.1 1883.76 1067.62L1883.44 1067.21C1884.15 1066.61 1884.95 1066.31 1885.82 1066.31C1886.56 1066.31 1887.15 1066.51 1887.58 1066.91C1888.01 1067.31 1888.22 1067.86 1888.22 1068.55C1888.22 1069.12 1888.08 1069.67 1887.79 1070.2C1887.5 1070.73 1886.98 1071.38 1886.22 1072.16L1884.02 1074.41V1074.44H1888.6V1075ZM1895.62 1070.69C1895.62 1072.2 1895.38 1073.31 1894.92 1074.03C1894.47 1074.76 1893.77 1075.12 1892.84 1075.12C1891.95 1075.12 1891.27 1074.75 1890.8 1074C1890.34 1073.26 1890.11 1072.15 1890.11 1070.69C1890.11 1069.2 1890.33 1068.1 1890.78 1067.38C1891.23 1066.66 1891.92 1066.3 1892.84 1066.3C1893.75 1066.3 1894.43 1066.67 1894.91 1067.42C1895.38 1068.16 1895.62 1069.25 1895.62 1070.69ZM1890.74 1070.69C1890.74 1072.02 1890.91 1073 1891.26 1073.64C1891.61 1074.27 1892.14 1074.59 1892.84 1074.59C1893.58 1074.59 1894.12 1074.26 1894.46 1073.61C1894.79 1072.95 1894.96 1071.98 1894.96 1070.69C1894.96 1069.43 1894.79 1068.47 1894.46 1067.81C1894.12 1067.15 1893.58 1066.83 1892.84 1066.83C1892.11 1066.83 1891.57 1067.15 1891.24 1067.81C1890.91 1068.47 1890.74 1069.43 1890.74 1070.69ZM1902.31 1075H1896.95V1074.48L1899.23 1072.11C1899.87 1071.44 1900.32 1070.93 1900.58 1070.58C1900.84 1070.23 1901.03 1069.89 1901.15 1069.57C1901.27 1069.25 1901.33 1068.92 1901.33 1068.57C1901.33 1068.05 1901.16 1067.64 1900.82 1067.32C1900.49 1067 1900.05 1066.84 1899.52 1066.84C1898.8 1066.84 1898.12 1067.1 1897.47 1067.62L1897.15 1067.21C1897.87 1066.61 1898.66 1066.31 1899.53 1066.31C1900.28 1066.31 1900.86 1066.51 1901.29 1066.91C1901.72 1067.31 1901.93 1067.86 1901.93 1068.55C1901.93 1069.12 1901.79 1069.67 1901.5 1070.2C1901.21 1070.73 1900.69 1071.38 1899.93 1072.16L1897.73 1074.41V1074.44H1902.31V1075ZM1907.14 1075H1906.57V1068.76C1906.57 1068.19 1906.59 1067.61 1906.64 1067C1906.58 1067.05 1906.52 1067.11 1906.46 1067.17C1906.39 1067.22 1905.79 1067.7 1904.64 1068.59L1904.31 1068.17L1906.64 1066.43H1907.14V1075Z" fill="white"/>
<defs>
<filter id="filter0_f_102_1369" x="575" y="1029" width="22" height="22" filterUnits="userSpaceOnUse" color-interpolation-filters="sRGB">
<feFlood flood-opacity="0" result="BackgroundImageFix"/>
<feBlend mode="normal" in="SourceGraphic" in2="BackgroundImageFix" result="shape"/>
<feGaussianBlur stdDeviation="3" result="effect1_foregroundBlur_102_1369"/>
</filter>
<filter id="filter1_f_102_1369" x="866" y="408" width="14" height="14" filterUnits="userSpaceOnUse" color-interpolation-filters="sRGB">
<feFlood flood-opacity="0" result="BackgroundImageFix"/>
<feBlend mode="normal" in="SourceGraphic" in2="BackgroundImageFix" result="shape"/>
<feGaussianBlur stdDeviation="1" result="effect1_foregroundBlur_102_1369"/>
</filter>
<filter id="filter2_f_102_1369" x="1287" y="883" width="18" height="18" filterUnits="userSpaceOnUse" color-interpolation-filters="sRGB">
<feFlood flood-opacity="0" result="BackgroundImageFix"/>
<feBlend mode="normal" in="SourceGraphic" in2="BackgroundImageFix" result="shape"/>
<feGaussianBlur stdDeviation="2" result="effect1_foregroundBlur_102_1369"/>
</filter>
<filter id="filter3_f_102_1369" x="1067" y="182" width="14" height="14" filterUnits="userSpaceOnUse" color-interpolation-filters="sRGB">
<feFlood flood-opacity="0" result="BackgroundImageFix"/>
<feBlend mode="normal" in="SourceGraphic" in2="BackgroundImageFix" result="shape"/>
<feGaussianBlur stdDeviation="1" result="effect1_foregroundBlur_102_1369"/>
</filter>
<filter id="filter4_f_102_1369" x="1464" y="732" width="14" height="14" filterUnits="userSpaceOnUse" color-interpolation-filters="sRGB">
<feFlood flood-opacity="0" result="BackgroundImageFix"/>
<feBlend mode="normal" in="SourceGraphic" in2="BackgroundImageFix" result="shape"/>
<feGaussianBlur stdDeviation="1" result="effect1_foregroundBlur_102_1369"/>
</filter>
<filter id="filter5_f_102_1369" x="1051" y="987" width="20" height="20" filterUnits="userSpaceOnUse" color-interpolation-filters="sRGB">
<feFlood flood-opacity="0" result="BackgroundImageFix"/>
<feBlend mode="normal" in="SourceGraphic" in2="BackgroundImageFix" result="shape"/>
<feGaussianBlur stdDeviation="2.5" result="effect1_foregroundBlur_102_1369"/>
</filter>
<filter id="filter6_f_102_1369" x="894" y="145" width="14" height="14" filterUnits="userSpaceOnUse" color-interpolation-filters="sRGB">
<feFlood flood-opacity="0" result="BackgroundImageFix"/>
<feBlend mode="normal" in="SourceGraphic" in2="BackgroundImageFix" result="shape"/>
<feGaussianBlur stdDeviation="1" result="effect1_foregroundBlur_102_1369"/>
</filter>
<filter id="filter7_f_102_1369" x="958" y="537" width="14" height="14" filterUnits="userSpaceOnUse" color-interpolation-filters="sRGB">
<feFlood flood-opacity="0" result="BackgroundImageFix"/>
<feBlend mode="normal" in="SourceGraphic" in2="BackgroundImageFix" result="shape"/>
<feGaussianBlur stdDeviation="1" result="effect1_foregroundBlur_102_1369"/>
</filter>
<filter id="filter8_f_102_1369" x="737" y="24" width="16" height="16" filterUnits="userSpaceOnUse" color-interpolation-filters="sRGB">
<feFlood flood-opacity="0" result="BackgroundImageFix"/>
<feBlend mode="normal" in="SourceGraphic" in2="BackgroundImageFix" result="shape"/>
<feGaussianBlur stdDeviation="1.5" result="effect1_foregroundBlur_102_1369"/>
</filter>
<filter id="filter9_f_102_1369" x="708" y="658" width="14" height="14" filterUnits="userSpaceOnUse" color-interpolation-filters="sRGB">
<feFlood flood-opacity="0" result="BackgroundImageFix"/>
<feBlend mode="normal" in="SourceGraphic" in2="BackgroundImageFix" result="shape"/>
<feGaussianBlur stdDeviation="1" result="effect1_foregroundBlur_102_1369"/>
</filter>
<filter id="filter10_f_102_1369" x="558" y="451" width="14" height="14" filterUnits="userSpaceOnUse" color-interpolation-filters="sRGB">
<feFlood flood-opacity="0" result="BackgroundImageFix"/>
<feBlend mode="normal" in="SourceGraphic" in2="BackgroundImageFix" result="shape"/>
<feGaussianBlur stdDeviation="1" result="effect1_foregroundBlur_102_1369"/>
</filter>
<filter id="filter11_f_102_1369" x="1046" y="199" width="16" height="16" filterUnits="userSpaceOnUse" color-interpolation-filters="sRGB">
<feFlood flood-opacity="0" result="BackgroundImageFix"/>
<feBlend mode="normal" in="SourceGraphic" in2="BackgroundImageFix" result="shape"/>
<feGaussianBlur stdDeviation="1.5" result="effect1_foregroundBlur_102_1369"/>
</filter>
<filter id="filter12_f_102_1369" x="619" y="311" width="14" height="14" filterUnits="userSpaceOnUse" color-interpolation-filters="sRGB">
<feFlood flood-opacity="0" result="BackgroundImageFix"/>
<feBlend mode="normal" in="SourceGraphic" in2="BackgroundImageFix" result="shape"/>
<feGaussianBlur stdDeviation="1" result="effect1_foregroundBlur_102_1369"/>
</filter>
<filter id="filter13_f_102_1369" x="553" y="844" width="14" height="14" filterUnits="userSpaceOnUse" color-interpolation-filters="sRGB">
<feFlood flood-opacity="0" result="BackgroundImageFix"/>
<feBlend mode="normal" in="SourceGraphic" in2="BackgroundImageFix" result="shape"/>
<feGaussianBlur stdDeviation="1" result="effect1_foregroundBlur_102_1369"/>
</filter>
<filter id="filter14_f_102_1369" x="1226" y="642" width="9" height="9" filterUnits="userSpaceOnUse" color-interpolation-filters="sRGB">
<feFlood flood-opacity="0" result="BackgroundImageFix"/>
<feBlend mode="normal" in="SourceGraphic" in2="BackgroundImageFix" result="shape"/>
<feGaussianBlur stdDeviation="1" result="effect1_foregroundBlur_102_1369"/>
</filter>
<filter id="filter15_f_102_1369" x="1320" y="299" width="9" height="9" filterUnits="userSpaceOnUse" color-interpolation-filters="sRGB">
<feFlood flood-opacity="0" result="BackgroundImageFix"/>
<feBlend mode="normal" in="SourceGraphic" in2="BackgroundImageFix" result="shape"/>
<feGaussianBlur stdDeviation="1" result="effect1_foregroundBlur_102_1369"/>
</filter>
<filter id="filter16_f_102_1369" x="1447" y="705" width="9" height="9" filterUnits="userSpaceOnUse" color-interpolation-filters="sRGB">
<feFlood flood-opacity="0" result="BackgroundImageFix"/>
<feBlend mode="normal" in="SourceGraphic" in2="BackgroundImageFix" result="shape"/>
<feGaussianBlur stdDeviation="1" result="effect1_foregroundBlur_102_1369"/>
</filter>
<filter id="filter17_f_102_1369" x="1023" y="732" width="9" height="9" filterUnits="userSpaceOnUse" color-interpolation-filters="sRGB">
<feFlood flood-opacity="0" result="BackgroundImageFix"/>
<feBlend mode="normal" in="SourceGraphic" in2="BackgroundImageFix" result="shape"/>
<feGaussianBlur stdDeviation="1" result="effect1_foregroundBlur_102_1369"/>
</filter>
<filter id="filter18_f_102_1369" x="755" y="947" width="17" height="17" filterUnits="userSpaceOnUse" color-interpolation-filters="sRGB">
<feFlood flood-opacity="0" result="BackgroundImageFix"/>
<feBlend mode="normal" in="SourceGraphic" in2="BackgroundImageFix" result="shape"/>
<feGaussianBlur stdDeviation="3" result="effect1_foregroundBlur_102_1369"/>
</filter>
<filter id="filter19_f_102_1369" x="1181" y="415" width="9" height="9" filterUnits="userSpaceOnUse" color-interpolation-filters="sRGB">
<feFlood flood-opacity="0" result="BackgroundImageFix"/>
<feBlend mode="normal" in="SourceGraphic" in2="BackgroundImageFix" result="shape"/>
<feGaussianBlur stdDeviation="1" result="effect1_foregroundBlur_102_1369"/>
</filter>
<filter id="filter20_f_102_1369" x="1312" y="1031" width="17" height="17" filterUnits="userSpaceOnUse" color-interpolation-filters="sRGB">
<feFlood flood-opacity="0" result="BackgroundImageFix"/>
<feBlend mode="normal" in="SourceGraphic" in2="BackgroundImageFix" result="shape"/>
<feGaussianBlur stdDeviation="3" result="effect1_foregroundBlur_102_1369"/>
</filter>
<filter id="filter21_f_102_1369" x="1273" y="906" width="17" height="17" filterUnits="userSpaceOnUse" color-interpolation-filters="sRGB">
<feFlood flood-opacity="0" result="BackgroundImageFix"/>
<feBlend mode="normal" in="SourceGraphic" in2="BackgroundImageFix" result="shape"/>
<feGaussianBlur stdDeviation="3" result="effect1_foregroundBlur_102_1369"/>
</filter>
<filter id="filter22_f_102_1369" x="185" y="559" width="14" height="14" filterUnits="userSpaceOnUse" color-interpolation-filters="sRGB">
<feFlood flood-opacity="0" result="BackgroundImageFix"/>
<feBlend mode="normal" in="SourceGraphic" in2="BackgroundImageFix" result="shape"/>
<feGaussianBlur stdDeviation="1" result="effect1_foregroundBlur_102_1369"/>
</filter>
<filter id="filter23_f_102_1369" x="20" y="336" width="14" height="14" filterUnits="userSpaceOnUse" color-interpolation-filters="sRGB">
<feFlood flood-opacity="0" result="BackgroundImageFix"/>
<feBlend mode="normal" in="SourceGraphic" in2="BackgroundImageFix" result="shape"/>
<feGaussianBlur stdDeviation="1" result="effect1_foregroundBlur_102_1369"/>
</filter>
<filter id="filter24_f_102_1369" x="523" y="100" width="16" height="16" filterUnits="userSpaceOnUse" color-interpolation-filters="sRGB">
<feFlood flood-opacity="0" result="BackgroundImageFix"/>
<feBlend mode="normal" in="SourceGraphic" in2="BackgroundImageFix" result="shape"/>
<feGaussianBlur stdDeviation="1.5" result="effect1_foregroundBlur_102_1369"/>
</filter>
<filter id="filter25_f_102_1369" x="96" y="212" width="14" height="14" filterUnits="userSpaceOnUse" color-interpolation-filters="sRGB">
<feFlood flood-opacity="0" result="BackgroundImageFix"/>
<feBlend mode="normal" in="SourceGraphic" in2="BackgroundImageFix" result="shape"/>
<feGaussianBlur stdDeviation="1" result="effect1_foregroundBlur_102_1369"/>
</filter>
<filter id="filter26_f_102_1369" x="30" y="745" width="14" height="14" filterUnits="userSpaceOnUse" color-interpolation-filters="sRGB">
<feFlood flood-opacity="0" result="BackgroundImageFix"/>
<feBlend mode="normal" in="SourceGraphic" in2="BackgroundImageFix" result="shape"/>
<feGaussianBlur stdDeviation="1" result="effect1_foregroundBlur_102_1369"/>
</filter>
<filter id="filter27_f_102_1369" x="232" y="848" width="17" height="17" filterUnits="userSpaceOnUse" color-interpolation-filters="sRGB">
<feFlood flood-opacity="0" result="BackgroundImageFix"/>
<feBlend mode="normal" in="SourceGraphic" in2="BackgroundImageFix" result="shape"/>
<feGaussianBlur stdDeviation="3" result="effect1_foregroundBlur_102_1369"/>
</filter>
<filter id="filter28_f_102_1369" x="658" y="316" width="9" height="9" filterUnits="userSpaceOnUse" color-interpolation-filters="sRGB">
<feFlood flood-opacity="0" result="BackgroundImageFix"/>
<feBlend mode="normal" in="SourceGraphic" in2="BackgroundImageFix" result="shape"/>
<feGaussianBlur stdDeviation="1" result="effect1_foregroundBlur_102_1369"/>
</filter>
<filter id="filter29_f_102_1369" x="493" y="542" width="14" height="14" filterUnits="userSpaceOnUse" color-interpolation-filters="sRGB">
<feFlood flood-opacity="0" result="BackgroundImageFix"/>
<feBlend mode="normal" in="SourceGraphic" in2="BackgroundImageFix" result="shape"/>
<feGaussianBlur stdDeviation="1" result="effect1_foregroundBlur_102_1369"/>
</filter>
<filter id="filter30_f_102_1369" x="90" y="394" width="14" height="14" filterUnits="userSpaceOnUse" color-interpolation-filters="sRGB">
<feFlood flood-opacity="0" result="BackgroundImageFix"/>
<feBlend mode="normal" in="SourceGraphic" in2="BackgroundImageFix" result="shape"/>
<feGaussianBlur stdDeviation="1" result="effect1_foregroundBlur_102_1369"/>
</filter>
<filter id="filter31_f_102_1369" x="547" y="732" width="16" height="16" filterUnits="userSpaceOnUse" color-interpolation-filters="sRGB">
<feFlood flood-opacity="0" result="BackgroundImageFix"/>
<feBlend mode="normal" in="SourceGraphic" in2="BackgroundImageFix" result="shape"/>
<feGaussianBlur stdDeviation="1.5" result="effect1_foregroundBlur_102_1369"/>
</filter>
<filter id="filter32_f_102_1369" x="437" y="305" width="14" height="14" filterUnits="userSpaceOnUse" color-interpolation-filters="sRGB">
<feFlood flood-opacity="0" result="BackgroundImageFix"/>
<feBlend mode="normal" in="SourceGraphic" in2="BackgroundImageFix" result="shape"/>
<feGaussianBlur stdDeviation="1" result="effect1_foregroundBlur_102_1369"/>
</filter>
<filter id="filter33_f_102_1369" x="463" y="355" width="9" height="9" filterUnits="userSpaceOnUse" color-interpolation-filters="sRGB">
<feFlood flood-opacity="0" result="BackgroundImageFix"/>
<feBlend mode="normal" in="SourceGraphic" in2="BackgroundImageFix" result="shape"/>
<feGaussianBlur stdDeviation="1" result="effect1_foregroundBlur_102_1369"/>
</filter>
<filter id="filter34_f_102_1369" x="995" y="872" width="17" height="17" filterUnits="userSpaceOnUse" color-interpolation-filters="sRGB">
<feFlood flood-opacity="0" result="BackgroundImageFix"/>
<feBlend mode="normal" in="SourceGraphic" in2="BackgroundImageFix" result="shape"/>
<feGaussianBlur stdDeviation="3" result="effect1_foregroundBlur_102_1369"/>
</filter>
<filter id="filter35_f_102_1369" x="750" y="807" width="17" height="17" filterUnits="userSpaceOnUse" color-interpolation-filters="sRGB">
<feFlood flood-opacity="0" result="BackgroundImageFix"/>
<feBlend mode="normal" in="SourceGraphic" in2="BackgroundImageFix" result="shape"/>
<feGaussianBlur stdDeviation="3" result="effect1_foregroundBlur_102_1369"/>
</filter>
<filter id="filter36_f_102_1369" x="1393" y="302" width="14" height="14" filterUnits="userSpaceOnUse" color-interpolation-filters="sRGB">
<feFlood flood-opacity="0" result="BackgroundImageFix"/>
<feBlend mode="normal" in="SourceGraphic" in2="BackgroundImageFix" result="shape"/>
<feGaussianBlur stdDeviation="1" result="effect1_foregroundBlur_102_1369"/>
</filter>
<filter id="filter37_f_102_1369" x="1358" y="426" width="14" height="14" filterUnits="userSpaceOnUse" color-interpolation-filters="sRGB">
<feFlood flood-opacity="0" result="BackgroundImageFix"/>
<feBlend mode="normal" in="SourceGraphic" in2="BackgroundImageFix" result="shape"/>
<feGaussianBlur stdDeviation="1" result="effect1_foregroundBlur_102_1369"/>
</filter>
<filter id="filter38_f_102_1369" x="1779" y="901" width="18" height="18" filterUnits="userSpaceOnUse" color-interpolation-filters="sRGB">
<feFlood flood-opacity="0" result="BackgroundImageFix"/>
<feBlend mode="normal" in="SourceGraphic" in2="BackgroundImageFix" result="shape"/>
<feGaussianBlur stdDeviation="2" result="effect1_foregroundBlur_102_1369"/>
</filter>
<filter id="filter39_f_102_1369" x="1544" y="647" width="14" height="14" filterUnits="userSpaceOnUse" color-interpolation-filters="sRGB">
<feFlood flood-opacity="0" result="BackgroundImageFix"/>
<feBlend mode="normal" in="SourceGraphic" in2="BackgroundImageFix" result="shape"/>
<feGaussianBlur stdDeviation="1" result="effect1_foregroundBlur_102_1369"/>
</filter>
<filter id="filter40_f_102_1369" x="1673" y="433" width="9" height="9" filterUnits="userSpaceOnUse" color-interpolation-filters="sRGB">
<feFlood flood-opacity="0" result="BackgroundImageFix"/>
<feBlend mode="normal" in="SourceGraphic" in2="BackgroundImageFix" result="shape"/>
<feGaussianBlur stdDeviation="1" result="effect1_foregroundBlur_102_1369"/>
</filter>
<filter id="filter41_f_102_1369" x="1885" y="320" width="14" height="14" filterUnits="userSpaceOnUse" color-interpolation-filters="sRGB">
<feFlood flood-opacity="0" result="BackgroundImageFix"/>
<feBlend mode="normal" in="SourceGraphic" in2="BackgroundImageFix" result="shape"/>
<feGaussianBlur stdDeviation="1" result="effect1_foregroundBlur_102_1369"/>
</filter>
<filter id="filter42_f_102_1369" x="1616" y="137" width="14" height="14" filterUnits="userSpaceOnUse" color-interpolation-filters="sRGB">
<feFlood flood-opacity="0" result="BackgroundImageFix"/>
<feBlend mode="normal" in="SourceGraphic" in2="BackgroundImageFix" result="shape"/>
<feGaussianBlur stdDeviation="1" result="effect1_foregroundBlur_102_1369"/>
</filter>
<filter id="filter43_f_102_1369" x="1850" y="640" width="16" height="16" filterUnits="userSpaceOnUse" color-interpolation-filters="sRGB">
<feFlood flood-opacity="0" result="BackgroundImageFix"/>
<feBlend mode="normal" in="SourceGraphic" in2="BackgroundImageFix" result="shape"/>
<feGaussianBlur stdDeviation="1.5" result="effect1_foregroundBlur_102_1369"/>
</filter>
<filter id="filter44_f_102_1369" x="1740" y="213" width="14" height="14" filterUnits="userSpaceOnUse" color-interpolation-filters="sRGB">
<feFlood flood-opacity="0" result="BackgroundImageFix"/>
<feBlend mode="normal" in="SourceGraphic" in2="BackgroundImageFix" result="shape"/>
<feGaussianBlur stdDeviation="1" result="effect1_foregroundBlur_102_1369"/>
</filter>
<filter id="filter45_f_102_1369" x="1207" y="147" width="14" height="14" filterUnits="userSpaceOnUse" color-interpolation-filters="sRGB">
<feFlood flood-opacity="0" result="BackgroundImageFix"/>
<feBlend mode="normal" in="SourceGraphic" in2="BackgroundImageFix" result="shape"/>
<feGaussianBlur stdDeviation="1" result="effect1_foregroundBlur_102_1369"/>
</filter>
<filter id="filter46_f_102_1369" x="1101" y="349" width="17" height="17" filterUnits="userSpaceOnUse" color-interpolation-filters="sRGB">
<feFlood flood-opacity="0" result="BackgroundImageFix"/>
<feBlend mode="normal" in="SourceGraphic" in2="BackgroundImageFix" result="shape"/>
<feGaussianBlur stdDeviation="3" result="effect1_foregroundBlur_102_1369"/>
</filter>
<filter id="filter47_f_102_1369" x="1096" y="621" width="17" height="17" filterUnits="userSpaceOnUse" color-interpolation-filters="sRGB">
<feFlood flood-opacity="0" result="BackgroundImageFix"/>
<feBlend mode="normal" in="SourceGraphic" in2="BackgroundImageFix" result="shape"/>
<feGaussianBlur stdDeviation="3" result="effect1_foregroundBlur_102_1369"/>
</filter>
<filter id="filter48_f_102_1369" x="1632" y="806" width="9" height="9" filterUnits="userSpaceOnUse" color-interpolation-filters="sRGB">
<feFlood flood-opacity="0" result="BackgroundImageFix"/>
<feBlend mode="normal" in="SourceGraphic" in2="BackgroundImageFix" result="shape"/>
<feGaussianBlur stdDeviation="1" result="effect1_foregroundBlur_102_1369"/>
</filter>
<filter id="filter49_f_102_1369" x="1017" y="906" width="17" height="17" filterUnits="userSpaceOnUse" color-interpolation-filters="sRGB">
<feFlood flood-opacity="0" result="BackgroundImageFix"/>
<feBlend mode="normal" in="SourceGraphic" in2="BackgroundImageFix" result="shape"/>
<feGaussianBlur stdDeviation="3" result="effect1_foregroundBlur_102_1369"/>
</filter>
<filter id="filter50_f_102_1369" x="1142" y="867" width="17" height="17" filterUnits="userSpaceOnUse" color-interpolation-filters="sRGB">
<feFlood flood-opacity="0" result="BackgroundImageFix"/>
<feBlend mode="normal" in="SourceGraphic" in2="BackgroundImageFix" result="shape"/>
<feGaussianBlur stdDeviation="3" result="effect1_foregroundBlur_102_1369"/>
</filter>
<filter id="filter51_d_102_1369" x="660" y="380" width="600" height="600" filterUnits="userSpaceOnUse" color-interpolation-filters="sRGB">
<feFlood flood-opacity="0" result="BackgroundImageFix"/>
<feColorMatrix in="SourceAlpha" type="matrix" values="0 0 0 0 0 0 0 0 0 0 0 0 0 0 0 0 0 0 127 0" result="hardAlpha"/>
<feOffset/>
<feGaussianBlur stdDeviation="50"/>
<feColorMatrix type="matrix" values="0 0 0 0 1 0 0 0 0 0 0 0 0 0 0.780392 0 0 0 1 0"/>
<feBlend mode="normal" in2="BackgroundImageFix" result="effect1_dropShadow_102_1369"/>
<feBlend mode="normal" in="SourceGraphic" in2="effect1_dropShadow_102_1369" result="shape"/>
</filter>
<filter id="filter52_d_102_1369" x="-1046.86" y="807.656" width="4013.72" height="287.344" filterUnits="userSpaceOnUse" color-interpolation-filters="sRGB">
<feFlood flood-opacity="0" result="BackgroundImageFix"/>
<feColorMatrix in="SourceAlpha" type="matrix" values="0 0 0 0 0 0 0 0 0 0 0 0 0 0 0 0 0 0 127 0" result="hardAlpha"/>
<feOffset/>
<feGaussianBlur stdDeviation="7.5"/>
<feColorMatrix type="matrix" values="0 0 0 0 1 0 0 0 0 0 0 0 0 0 0.78 0 0 0 1 0"/>
<feBlend mode="normal" in2="BackgroundImageFix" result="effect1_dropShadow_102_1369"/>
<feBlend mode="normal" in="SourceGraphic" in2="effect1_dropShadow_102_1369" result="shape"/>
</filter>
<linearGradient id="paint0_linear_102_1369" x1="960" y1="0" x2="960" y2="1080" gradientUnits="userSpaceOnUse">
<stop stop-color="#010048"/>
<stop offset="0.125" stop-color="#09001D"/>
<stop offset="0.53125" stop-color="#09001D"/>
<stop offset="0.755208" stop-color="#4E0695"/>
<stop offset="1" stop-color="#9F29C9"/>
</linearGradient>
<linearGradient id="paint1_linear_102_1369" x1="960" y1="480" x2="960" y2="880" gradientUnits="userSpaceOnUse">
<stop offset="0.156789" stop-color="#FF5C00" stop-opacity="0"/>
<stop offset="1" stop-color="#FF0000"/>
</linearGradient>
<linearGradient id="paint2_linear_102_1369" x1="960" y1="480" x2="960" y2="880" gradientUnits="userSpaceOnUse">
<stop offset="0.156789" stop-color="#FF5C00" stop-opacity="0"/>
<stop offset="1" stop-color="#FF0000"/>
</linearGradient>
<linearGradient id="paint3_linear_102_1369" x1="960" y1="480" x2="960" y2="880" gradientUnits="userSpaceOnUse">
<stop offset="0.156789" stop-color="#FF5C00" stop-opacity="0"/>
<stop offset="1" stop-color="#FF0000"/>
</linearGradient>
<linearGradient id="paint4_linear_102_1369" x1="960" y1="480" x2="960" y2="880" gradientUnits="userSpaceOnUse">
<stop offset="0.156789" stop-color="#FF5C00" stop-opacity="0"/>
<stop offset="1" stop-color="#FF0000"/>
</linearGradient>
<linearGradient id="paint5_linear_102_1369" x1="960" y1="480" x2="960" y2="880" gradientUnits="userSpaceOnUse">
<stop offset="0.156789" stop-color="#FF5C00" stop-opacity="0"/>
<stop offset="1" stop-color="#FF0000"/>
</linearGradient>
<linearGradient id="paint6_linear_102_1369" x1="960" y1="480" x2="960" y2="880" gradientUnits="userSpaceOnUse">
<stop offset="0.156789" stop-color="#FF5C00" stop-opacity="0"/>
<stop offset="1" stop-color="#FF0000"/>
</linearGradient>
<linearGradient id="paint7_linear_102_1369" x1="960" y1="480" x2="960" y2="880" gradientUnits="userSpaceOnUse">
<stop offset="0.156789" stop-color="#FF5C00" stop-opacity="0"/>
<stop offset="1" stop-color="#FF0000"/>
</linearGradient>
<linearGradient id="paint8_linear_102_1369" x1="960" y1="480" x2="960" y2="880" gradientUnits="userSpaceOnUse">
<stop offset="0.156789" stop-color="#FF5C00" stop-opacity="0"/>
<stop offset="1" stop-color="#FF0000"/>
</linearGradient>
<linearGradient id="paint9_linear_102_1369" x1="960" y1="480" x2="960" y2="880" gradientUnits="userSpaceOnUse">
<stop offset="0.156789" stop-color="#FF5C00" stop-opacity="0"/>
<stop offset="1" stop-color="#FF0000"/>
</linearGradient>
<linearGradient id="paint10_linear_102_1369" x1="960" y1="480" x2="960" y2="880" gradientUnits="userSpaceOnUse">
<stop offset="0.156789" stop-color="#FF5C00" stop-opacity="0"/>
<stop offset="1" stop-color="#FF0000"/>
</linearGradient>
<linearGradient id="paint11_linear_102_1369" x1="960" y1="930" x2="960" y2="1080" gradientUnits="userSpaceOnUse">
<stop stop-color="#007EF2"/>
<stop offset="1" stop-opacity="0"/>
</linearGradient>
<linearGradient id="paint12_linear_102_1369" x1="960" y1="808" x2="960" y2="933" gradientUnits="userSpaceOnUse">
<stop offset="0.566964" stop-color="#0E0671" stop-opacity="0.29"/>
<stop offset="1" stop-color="#00A3FF" stop-opacity="0.4"/>
</linearGradient>
<linearGradient id="paint13_linear_102_1369" x1="960" y1="810" x2="960" y2="1080" gradientUnits="userSpaceOnUse">
<stop stop-color="white" stop-opacity="0"/>
<stop offset="0.395089" stop-color="#FF2AF6" stop-opacity="0.24"/>
<stop offset="0.457589" stop-color="white" stop-opacity="0.66"/>
<stop offset="0.588584" stop-color="#FF4CF8" stop-opacity="0.35"/>
<stop offset="1" stop-color="white" stop-opacity="0"/>
</linearGradient>
<clipPath id="clip0_102_1369">
<rect width="1920" height="150" fill="white" transform="translate(0 930)"/>
</clipPath>
</defs>
</svg>
