<svg width="1920" height="1080" viewBox="0 0 1920 1080" fill="none" xmlns="http://www.w3.org/2000/svg">
<g clip-path="url(#clip0)">
<rect width="1920" height="1080" fill="url(#paint0_linear)"/>
<g filter="url(#filter0_f)">
<path d="M586 1035L587.35 1038.65L591 1040L587.35 1041.35L586 1045L584.65 1041.35L581 1040L584.65 1038.65L586 1035Z" fill="white"/>
</g>
<g filter="url(#filter1_f)">
<path d="M873 410L874.35 413.65L878 415L874.35 416.35L873 420L871.65 416.35L868 415L871.65 413.65L873 410Z" fill="white"/>
</g>
<g filter="url(#filter2_f)">
<path d="M1296 887L1297.35 890.65L1301 892L1297.35 893.35L1296 897L1294.65 893.35L1291 892L1294.65 890.65L1296 887Z" fill="white"/>
</g>
<g filter="url(#filter3_f)">
<path d="M1074 184L1075.35 187.65L1079 189L1075.35 190.35L1074 194L1072.65 190.35L1069 189L1072.65 187.65L1074 184Z" fill="white"/>
</g>
<g filter="url(#filter4_f)">
<path d="M1471 734L1472.35 737.65L1476 739L1472.35 740.35L1471 744L1469.65 740.35L1466 739L1469.65 737.65L1471 734Z" fill="white"/>
</g>
<g filter="url(#filter5_f)">
<path d="M1061 992L1062.35 995.65L1066 997L1062.35 998.35L1061 1002L1059.65 998.35L1056 997L1059.65 995.65L1061 992Z" fill="white"/>
</g>
<g filter="url(#filter6_f)">
<path d="M901 147L902.35 150.65L906 152L902.35 153.35L901 157L899.65 153.35L896 152L899.65 150.65L901 147Z" fill="white"/>
</g>
<g filter="url(#filter7_f)">
<path d="M965 539L966.35 542.65L970 544L966.35 545.35L965 549L963.65 545.35L960 544L963.65 542.65L965 539Z" fill="white"/>
</g>
<g filter="url(#filter8_f)">
<path d="M745 27L746.35 30.6495L750 32L746.35 33.3505L745 37L743.65 33.3505L740 32L743.65 30.6495L745 27Z" fill="white"/>
</g>
<g filter="url(#filter9_f)">
<path d="M715 660L716.35 663.65L720 665L716.35 666.35L715 670L713.65 666.35L710 665L713.65 663.65L715 660Z" fill="white"/>
</g>
<g filter="url(#filter10_f)">
<path d="M565 453L566.35 456.65L570 458L566.35 459.35L565 463L563.65 459.35L560 458L563.65 456.65L565 453Z" fill="white"/>
</g>
<g filter="url(#filter11_f)">
<path d="M1054 202L1055.35 205.65L1059 207L1055.35 208.35L1054 212L1052.65 208.35L1049 207L1052.65 205.65L1054 202Z" fill="white"/>
</g>
<g filter="url(#filter12_f)">
<path d="M626 313L627.35 316.65L631 318L627.35 319.35L626 323L624.65 319.35L621 318L624.65 316.65L626 313Z" fill="white"/>
</g>
<g filter="url(#filter13_f)">
<path d="M560 846L561.35 849.65L565 851L561.35 852.35L560 856L558.65 852.35L555 851L558.65 849.65L560 846Z" fill="white"/>
</g>
<g filter="url(#filter14_f)">
<circle cx="1230.5" cy="646.5" r="2.5" fill="#FFFCA8"/>
</g>
<g filter="url(#filter15_f)">
<circle cx="1324.5" cy="303.5" r="2.5" fill="#FFFCA8"/>
</g>
<g filter="url(#filter16_f)">
<circle cx="1451.5" cy="709.5" r="2.5" fill="#FFFCA8"/>
</g>
<g filter="url(#filter17_f)">
<circle cx="1027.5" cy="736.5" r="2.5" fill="#FFFCA8"/>
</g>
<g filter="url(#filter18_f)">
<circle cx="763.5" cy="955.5" r="2.5" fill="#FFFCA8"/>
</g>
<g filter="url(#filter19_f)">
<circle cx="1185.5" cy="419.5" r="2.5" fill="#FFFCA8"/>
</g>
<g filter="url(#filter20_f)">
<circle cx="1320.5" cy="1039.5" r="2.5" fill="#FFFCA8"/>
</g>
<g filter="url(#filter21_f)">
<circle cx="1281.5" cy="914.5" r="2.5" fill="#FFFCA8"/>
</g>
<g filter="url(#filter22_f)">
<path d="M192 561L193.35 564.65L197 566L193.35 567.35L192 571L190.65 567.35L187 566L190.65 564.65L192 561Z" fill="white"/>
</g>
<g filter="url(#filter23_f)">
<path d="M27 338L28.3505 341.65L32 343L28.3505 344.35L27 348L25.6495 344.35L22 343L25.6495 341.65L27 338Z" fill="white"/>
</g>
<g filter="url(#filter24_f)">
<path d="M531 103L532.35 106.65L536 108L532.35 109.35L531 113L529.65 109.35L526 108L529.65 106.65L531 103Z" fill="white"/>
</g>
<g filter="url(#filter25_f)">
<path d="M103 214L104.35 217.65L108 219L104.35 220.35L103 224L101.65 220.35L98 219L101.65 217.65L103 214Z" fill="white"/>
</g>
<g filter="url(#filter26_f)">
<path d="M37 747L38.3505 750.65L42 752L38.3505 753.35L37 757L35.6495 753.35L32 752L35.6495 750.65L37 747Z" fill="white"/>
</g>
<g filter="url(#filter27_f)">
<circle cx="240.5" cy="856.5" r="2.5" fill="#FFFCA8"/>
</g>
<g filter="url(#filter28_f)">
<circle cx="662.5" cy="320.5" r="2.5" fill="#FFFCA8"/>
</g>
<g filter="url(#filter29_f)">
<path d="M505 549L501.35 550.35L500 554L498.65 550.35L495 549L498.65 547.65L500 544L501.35 547.65L505 549Z" fill="white"/>
</g>
<g filter="url(#filter30_f)">
<path d="M102 401L98.3505 402.35L97 406L95.6495 402.35L92 401L95.6495 399.65L97 396L98.3505 399.65L102 401Z" fill="white"/>
</g>
<g filter="url(#filter31_f)">
<path d="M560 740L556.35 741.35L555 745L553.65 741.35L550 740L553.65 738.65L555 735L556.35 738.65L560 740Z" fill="white"/>
</g>
<g filter="url(#filter32_f)">
<path d="M449 312L445.35 313.35L444 317L442.65 313.35L439 312L442.65 310.65L444 307L445.35 310.65L449 312Z" fill="white"/>
</g>
<g filter="url(#filter33_f)">
<circle cx="467.5" cy="359.5" r="2.5" transform="rotate(90 467.5 359.5)" fill="#FFFCA8"/>
</g>
<g filter="url(#filter34_f)">
<circle cx="1003.5" cy="880.5" r="2.5" fill="#FFFCA8"/>
</g>
<g filter="url(#filter35_f)">
<circle cx="758.5" cy="815.5" r="2.5" fill="#FFFCA8"/>
</g>
<g filter="url(#filter36_f)">
<path d="M1405 309L1401.35 310.35L1400 314L1398.65 310.35L1395 309L1398.65 307.65L1400 304L1401.35 307.65L1405 309Z" fill="white"/>
</g>
<g filter="url(#filter37_f)">
<path d="M1365 428L1366.35 431.65L1370 433L1366.35 434.35L1365 438L1363.65 434.35L1360 433L1363.65 431.65L1365 428Z" fill="white"/>
</g>
<g filter="url(#filter38_f)">
<path d="M1788 905L1789.35 908.65L1793 910L1789.35 911.35L1788 915L1786.65 911.35L1783 910L1786.65 908.65L1788 905Z" fill="white"/>
</g>
<g filter="url(#filter39_f)">
<path d="M1551 649L1552.35 652.65L1556 654L1552.35 655.35L1551 659L1549.65 655.35L1546 654L1549.65 652.65L1551 649Z" fill="white"/>
</g>
<g filter="url(#filter40_f)">
<circle cx="1677.5" cy="437.5" r="2.5" fill="#FFFCA8"/>
</g>
<g filter="url(#filter41_f)">
<path d="M1897 327L1893.35 328.35L1892 332L1890.65 328.35L1887 327L1890.65 325.65L1892 322L1893.35 325.65L1897 327Z" fill="white"/>
</g>
<g filter="url(#filter42_f)">
<path d="M1628 144L1624.35 145.35L1623 149L1621.65 145.35L1618 144L1621.65 142.65L1623 139L1624.35 142.65L1628 144Z" fill="white"/>
</g>
<g filter="url(#filter43_f)">
<path d="M1863 648L1859.35 649.351L1858 653L1856.65 649.351L1853 648L1856.65 646.65L1858 643L1859.35 646.65L1863 648Z" fill="white"/>
</g>
<g filter="url(#filter44_f)">
<path d="M1752 220L1748.35 221.35L1747 225L1745.65 221.35L1742 220L1745.65 218.65L1747 215L1748.35 218.65L1752 220Z" fill="white"/>
</g>
<g filter="url(#filter45_f)">
<path d="M1219 154L1215.35 155.35L1214 159L1212.65 155.35L1209 154L1212.65 152.65L1214 149L1215.35 152.65L1219 154Z" fill="white"/>
</g>
<g filter="url(#filter46_f)">
<circle cx="1109.5" cy="357.5" r="2.5" transform="rotate(90 1109.5 357.5)" fill="#FFFCA8"/>
</g>
<g filter="url(#filter47_f)">
<circle cx="1104.5" cy="629.5" r="2.5" transform="rotate(90 1104.5 629.5)" fill="#FFFCA8"/>
</g>
<g filter="url(#filter48_f)">
<circle cx="1636.5" cy="810.5" r="2.5" transform="rotate(90 1636.5 810.5)" fill="#FFFCA8"/>
</g>
<g filter="url(#filter49_f)">
<circle cx="1025.5" cy="914.5" r="2.5" transform="rotate(90 1025.5 914.5)" fill="#FFFCA8"/>
</g>
<g filter="url(#filter50_f)">
<circle cx="1150.5" cy="875.5" r="2.5" transform="rotate(90 1150.5 875.5)" fill="#FFFCA8"/>
</g>
<g filter="url(#filter51_d)">
<path d="M1108.82 809.908C1108.29 814.167 1107.57 818.372 1106.69 822.513H813.31C812.425 818.372 811.711 814.167 811.175 809.908H1108.82Z" fill="#FFC700"/>
<path d="M1108.82 809.908C1108.29 814.167 1107.57 818.372 1106.69 822.513H813.31C812.425 818.372 811.711 814.167 811.175 809.908H1108.82Z" fill="url(#paint1_linear)"/>
<path d="M824.43 855.286C821.351 848.805 818.724 842.069 816.588 835.118H1103.41C1101.28 842.069 1098.65 848.805 1095.57 855.286H824.43Z" fill="#FFC700"/>
<path d="M824.43 855.286C821.351 848.805 818.724 842.069 816.588 835.118H1103.41C1101.28 842.069 1098.65 848.805 1095.57 855.286H824.43Z" fill="url(#paint2_linear)"/>
<path d="M848.379 891.21C843.246 885.497 838.545 879.387 834.329 872.933H1085.67C1081.45 879.387 1076.75 885.497 1071.62 891.21H848.379Z" fill="#FFC700"/>
<path d="M848.379 891.21C843.246 885.497 838.545 879.387 834.329 872.933H1085.67C1081.45 879.387 1076.75 885.497 1071.62 891.21H848.379Z" fill="url(#paint3_linear)"/>
<path d="M878.654 917.05C902.088 932.203 930.017 941 960 941C989.983 941 1017.91 932.203 1041.35 917.05H878.654Z" fill="#FFC700"/>
<path d="M878.654 917.05C902.088 932.203 930.017 941 960 941C989.983 941 1017.91 932.203 1041.35 917.05H878.654Z" fill="url(#paint4_linear)"/>
<path d="M810.078 785.958H1109.92C1109.87 784.27 1109.78 782.589 1109.67 780.916H810.328C810.217 782.589 810.134 784.27 810.078 785.958Z" fill="#FFC700"/>
<path d="M810.078 785.958H1109.92C1109.87 784.27 1109.78 782.589 1109.67 780.916H810.328C810.217 782.589 810.134 784.27 810.078 785.958Z" fill="url(#paint5_linear)"/>
<path d="M1110 792.261C1109.98 795.01 1109.88 797.742 1109.71 800.454H810.288C810.119 797.742 810.022 795.01 810 792.261H1110Z" fill="#FFC700"/>
<path d="M1110 792.261C1109.98 795.01 1109.88 797.742 1109.71 800.454H810.288C810.119 797.742 810.022 795.01 810 792.261H1110Z" fill="url(#paint6_linear)"/>
<path d="M960 641C882.692 641 819.043 699.48 810.88 774.613H1109.12C1100.96 699.48 1037.31 641 960 641Z" fill="#FFC700"/>
<path d="M960 641C882.692 641 819.043 699.48 810.88 774.613H1109.12C1100.96 699.48 1037.31 641 960 641Z" fill="url(#paint7_linear)"/>
</g>
<g clip-path="url(#clip1)">
<rect y="930" width="1920" height="150" fill="#002F49"/>
<rect y="930" width="1920" height="150" fill="url(#paint8_linear)"/>
<g filter="url(#filter52_d)">
<path fill-rule="evenodd" clip-rule="evenodd" d="M960 822.656L873.397 1080H1046.6L960 822.656ZM960 837.698L879.248 1077.66H1040.75L960 837.698Z" fill="#FEEFFF"/>
<path fill-rule="evenodd" clip-rule="evenodd" d="M960 822.656L700.192 1080H1219.81L960 822.656ZM960 828.135L708.09 1077.66H1211.91L960 828.135Z" fill="#FEEFFF"/>
<path fill-rule="evenodd" clip-rule="evenodd" d="M960 822.656L526.987 1080H1393.01L960 822.656ZM960 826.441L537.299 1077.66H1382.7L960 826.441Z" fill="#FEEFFF"/>
<path fill-rule="evenodd" clip-rule="evenodd" d="M960 825.818L366.752 1077.66H1553.25L960 825.818ZM960 822.656L353.782 1080H1566.22L960 822.656Z" fill="#FEEFFF"/>
<path fill-rule="evenodd" clip-rule="evenodd" d="M960 825.523L196.358 1077.66H1723.64L960 825.523ZM960 822.656L180.577 1080H1739.42L960 822.656Z" fill="#FEEFFF"/>
<path fill-rule="evenodd" clip-rule="evenodd" d="M960 825.361L26.0618 1077.66H1893.94L960 825.361ZM960 822.656L7.37207 1080H1912.63L960 822.656Z" fill="#FEEFFF"/>
<path fill-rule="evenodd" clip-rule="evenodd" d="M960 825.264L-144.172 1077.66H2064.17L960 825.264ZM960 822.656L-165.833 1080H2085.83L960 822.656Z" fill="#FEEFFF"/>
<path fill-rule="evenodd" clip-rule="evenodd" d="M960 825.201L-314.363 1077.66H2234.36L960 825.201ZM960 822.656L-339.038 1080H2259.04L960 822.656Z" fill="#FEEFFF"/>
<path fill-rule="evenodd" clip-rule="evenodd" d="M960 825.158L-484.524 1077.66H2404.52L960 825.158ZM960 822.656L-512.243 1080H2432.24L960 822.656Z" fill="#FEEFFF"/>
<path fill-rule="evenodd" clip-rule="evenodd" d="M960 825.127L-654.664 1077.66H2574.66L960 825.127ZM960 822.656L-685.448 1080H2605.45L960 822.656Z" fill="#FEEFFF"/>
<path fill-rule="evenodd" clip-rule="evenodd" d="M960 825.104L-824.788 1077.66H2744.79L960 825.104ZM960 822.656L-858.653 1080H2778.65L960 822.656Z" fill="#FEEFFF"/>
<path fill-rule="evenodd" clip-rule="evenodd" d="M960 825.087L-994.9 1077.66H2914.9L960 825.087ZM960 822.656L-1031.86 1080H2951.86L960 822.656Z" fill="#FEEFFF"/>
<path fill-rule="evenodd" clip-rule="evenodd" d="M2660 1079.5L-740 1079.5L-740 1077.16L2660 1077.16L2660 1079.5Z" fill="#FEEFFF"/>
<path fill-rule="evenodd" clip-rule="evenodd" d="M2660 1053.76L-740 1053.76L-740 1051.41L2660 1051.41L2660 1053.76Z" fill="#FEEFFF"/>
<path fill-rule="evenodd" clip-rule="evenodd" d="M2660 1030.35L-740 1030.35L-740 1028.01L2660 1028.01L2660 1030.35Z" fill="#FEEFFF"/>
<path fill-rule="evenodd" clip-rule="evenodd" d="M2660 1009.29L-740 1009.29L-740 1006.94L2660 1006.94L2660 1009.29Z" fill="#FEEFFF"/>
<path fill-rule="evenodd" clip-rule="evenodd" d="M2660 990.563L-740 990.562L-740 988.219L2660 988.219L2660 990.563Z" fill="#FEEFFF"/>
<path fill-rule="evenodd" clip-rule="evenodd" d="M2660 974.179L-740 974.179L-740 971.835L2660 971.835L2660 974.179Z" fill="#FEEFFF"/>
<path fill-rule="evenodd" clip-rule="evenodd" d="M2660 960.135L-740 960.135L-740 957.792L2660 957.792L2660 960.135Z" fill="#FEEFFF"/>
<path fill-rule="evenodd" clip-rule="evenodd" d="M2660 948.433L-740 948.432L-740 946.089L2660 946.089L2660 948.433Z" fill="#FEEFFF"/>
<path fill-rule="evenodd" clip-rule="evenodd" d="M2660 939.07L-740 939.07L-740 936.727L2660 936.727L2660 939.07Z" fill="#FEEFFF"/>
<path fill-rule="evenodd" clip-rule="evenodd" d="M2660 932.049L-740 932.049L-740 929.705L2660 929.705L2660 932.049Z" fill="#FEEFFF"/>
</g>
</g>
<path d="M1 916.173L64 870.5L83 895.019L102 900.788L119.5 886.846L150 900.788L202.5 916.173L240.5 886.846L262.5 900.788L337 861.365L349.5 895.019L381 900.788L389.5 875.788L436 831.077L446.5 870.5L476.5 900.788L502 875.788L538.5 870.5L567 839.25L602.5 831.077L639.5 846.462L675 875.788L702.5 861.365L711 831.077L728.5 808H746.5L764.5 839.25L783.5 861.365L799 839.25L826.5 846.462L850.5 870.5L859 861.365L872.5 846.462L887.5 820.981H906L939 846.462L950.5 861.365H969L992.5 846.462L1008 870.5L1025 846.462L1054.5 831.077L1063.5 846.462L1084.5 861.365L1114 886.846L1135 892.615L1157 870.5L1194 839.25L1219 846.462L1251.5 820.981L1273.5 846.462L1306.5 875.788L1336.5 870.5L1366 886.846L1386 892.615L1411.5 861.365L1488 886.846L1514 881.558L1525.5 892.615C1529.83 896.141 1538.5 904.154 1538.5 908C1538.5 911.846 1548.17 909.603 1553 908L1563.5 892.615L1585.5 846.462L1637 861.365L1654 886.846L1678 881.558L1692.5 824.346L1711.5 855.596L1735.5 839.25H1756.5L1773.5 861.365L1795.5 908L1832.5 900.788L1849 881.558L1872 892.615L1892 908L1918.5 900.788V933H1V916.173Z" fill="black"/>
<path d="M1 916.173L64 870.5L83 895.019L102 900.788L119.5 886.846L150 900.788L202.5 916.173L240.5 886.846L262.5 900.788L337 861.365L349.5 895.019L381 900.788L389.5 875.788L436 831.077L446.5 870.5L476.5 900.788L502 875.788L538.5 870.5L567 839.25L602.5 831.077L639.5 846.462L675 875.788L702.5 861.365L711 831.077L728.5 808H746.5L764.5 839.25L783.5 861.365L799 839.25L826.5 846.462L850.5 870.5L859 861.365L872.5 846.462L887.5 820.981H906L939 846.462L950.5 861.365H969L992.5 846.462L1008 870.5L1025 846.462L1054.5 831.077L1063.5 846.462L1084.5 861.365L1114 886.846L1135 892.615L1157 870.5L1194 839.25L1219 846.462L1251.5 820.981L1273.5 846.462L1306.5 875.788L1336.5 870.5L1366 886.846L1386 892.615L1411.5 861.365L1488 886.846L1514 881.558L1525.5 892.615C1529.83 896.141 1538.5 904.154 1538.5 908C1538.5 911.846 1548.17 909.603 1553 908L1563.5 892.615L1585.5 846.462L1637 861.365L1654 886.846L1678 881.558L1692.5 824.346L1711.5 855.596L1735.5 839.25H1756.5L1773.5 861.365L1795.5 908L1832.5 900.788L1849 881.558L1872 892.615L1892 908L1918.5 900.788V933H1V916.173Z" fill="url(#paint9_linear)"/>
<rect x="1" y="776" width="1919" height="336" fill="url(#paint10_linear)"/>
</g>
<defs>
<filter id="filter0_f" x="575" y="1029" width="22" height="22" filterUnits="userSpaceOnUse" color-interpolation-filters="sRGB">
<feFlood flood-opacity="0" result="BackgroundImageFix"/>
<feBlend mode="normal" in="SourceGraphic" in2="BackgroundImageFix" result="shape"/>
<feGaussianBlur stdDeviation="3" result="effect1_foregroundBlur"/>
</filter>
<filter id="filter1_f" x="866" y="408" width="14" height="14" filterUnits="userSpaceOnUse" color-interpolation-filters="sRGB">
<feFlood flood-opacity="0" result="BackgroundImageFix"/>
<feBlend mode="normal" in="SourceGraphic" in2="BackgroundImageFix" result="shape"/>
<feGaussianBlur stdDeviation="1" result="effect1_foregroundBlur"/>
</filter>
<filter id="filter2_f" x="1287" y="883" width="18" height="18" filterUnits="userSpaceOnUse" color-interpolation-filters="sRGB">
<feFlood flood-opacity="0" result="BackgroundImageFix"/>
<feBlend mode="normal" in="SourceGraphic" in2="BackgroundImageFix" result="shape"/>
<feGaussianBlur stdDeviation="2" result="effect1_foregroundBlur"/>
</filter>
<filter id="filter3_f" x="1067" y="182" width="14" height="14" filterUnits="userSpaceOnUse" color-interpolation-filters="sRGB">
<feFlood flood-opacity="0" result="BackgroundImageFix"/>
<feBlend mode="normal" in="SourceGraphic" in2="BackgroundImageFix" result="shape"/>
<feGaussianBlur stdDeviation="1" result="effect1_foregroundBlur"/>
</filter>
<filter id="filter4_f" x="1464" y="732" width="14" height="14" filterUnits="userSpaceOnUse" color-interpolation-filters="sRGB">
<feFlood flood-opacity="0" result="BackgroundImageFix"/>
<feBlend mode="normal" in="SourceGraphic" in2="BackgroundImageFix" result="shape"/>
<feGaussianBlur stdDeviation="1" result="effect1_foregroundBlur"/>
</filter>
<filter id="filter5_f" x="1051" y="987" width="20" height="20" filterUnits="userSpaceOnUse" color-interpolation-filters="sRGB">
<feFlood flood-opacity="0" result="BackgroundImageFix"/>
<feBlend mode="normal" in="SourceGraphic" in2="BackgroundImageFix" result="shape"/>
<feGaussianBlur stdDeviation="2.5" result="effect1_foregroundBlur"/>
</filter>
<filter id="filter6_f" x="894" y="145" width="14" height="14" filterUnits="userSpaceOnUse" color-interpolation-filters="sRGB">
<feFlood flood-opacity="0" result="BackgroundImageFix"/>
<feBlend mode="normal" in="SourceGraphic" in2="BackgroundImageFix" result="shape"/>
<feGaussianBlur stdDeviation="1" result="effect1_foregroundBlur"/>
</filter>
<filter id="filter7_f" x="958" y="537" width="14" height="14" filterUnits="userSpaceOnUse" color-interpolation-filters="sRGB">
<feFlood flood-opacity="0" result="BackgroundImageFix"/>
<feBlend mode="normal" in="SourceGraphic" in2="BackgroundImageFix" result="shape"/>
<feGaussianBlur stdDeviation="1" result="effect1_foregroundBlur"/>
</filter>
<filter id="filter8_f" x="737" y="24" width="16" height="16" filterUnits="userSpaceOnUse" color-interpolation-filters="sRGB">
<feFlood flood-opacity="0" result="BackgroundImageFix"/>
<feBlend mode="normal" in="SourceGraphic" in2="BackgroundImageFix" result="shape"/>
<feGaussianBlur stdDeviation="1.5" result="effect1_foregroundBlur"/>
</filter>
<filter id="filter9_f" x="708" y="658" width="14" height="14" filterUnits="userSpaceOnUse" color-interpolation-filters="sRGB">
<feFlood flood-opacity="0" result="BackgroundImageFix"/>
<feBlend mode="normal" in="SourceGraphic" in2="BackgroundImageFix" result="shape"/>
<feGaussianBlur stdDeviation="1" result="effect1_foregroundBlur"/>
</filter>
<filter id="filter10_f" x="558" y="451" width="14" height="14" filterUnits="userSpaceOnUse" color-interpolation-filters="sRGB">
<feFlood flood-opacity="0" result="BackgroundImageFix"/>
<feBlend mode="normal" in="SourceGraphic" in2="BackgroundImageFix" result="shape"/>
<feGaussianBlur stdDeviation="1" result="effect1_foregroundBlur"/>
</filter>
<filter id="filter11_f" x="1046" y="199" width="16" height="16" filterUnits="userSpaceOnUse" color-interpolation-filters="sRGB">
<feFlood flood-opacity="0" result="BackgroundImageFix"/>
<feBlend mode="normal" in="SourceGraphic" in2="BackgroundImageFix" result="shape"/>
<feGaussianBlur stdDeviation="1.5" result="effect1_foregroundBlur"/>
</filter>
<filter id="filter12_f" x="619" y="311" width="14" height="14" filterUnits="userSpaceOnUse" color-interpolation-filters="sRGB">
<feFlood flood-opacity="0" result="BackgroundImageFix"/>
<feBlend mode="normal" in="SourceGraphic" in2="BackgroundImageFix" result="shape"/>
<feGaussianBlur stdDeviation="1" result="effect1_foregroundBlur"/>
</filter>
<filter id="filter13_f" x="553" y="844" width="14" height="14" filterUnits="userSpaceOnUse" color-interpolation-filters="sRGB">
<feFlood flood-opacity="0" result="BackgroundImageFix"/>
<feBlend mode="normal" in="SourceGraphic" in2="BackgroundImageFix" result="shape"/>
<feGaussianBlur stdDeviation="1" result="effect1_foregroundBlur"/>
</filter>
<filter id="filter14_f" x="1226" y="642" width="9" height="9" filterUnits="userSpaceOnUse" color-interpolation-filters="sRGB">
<feFlood flood-opacity="0" result="BackgroundImageFix"/>
<feBlend mode="normal" in="SourceGraphic" in2="BackgroundImageFix" result="shape"/>
<feGaussianBlur stdDeviation="1" result="effect1_foregroundBlur"/>
</filter>
<filter id="filter15_f" x="1320" y="299" width="9" height="9" filterUnits="userSpaceOnUse" color-interpolation-filters="sRGB">
<feFlood flood-opacity="0" result="BackgroundImageFix"/>
<feBlend mode="normal" in="SourceGraphic" in2="BackgroundImageFix" result="shape"/>
<feGaussianBlur stdDeviation="1" result="effect1_foregroundBlur"/>
</filter>
<filter id="filter16_f" x="1447" y="705" width="9" height="9" filterUnits="userSpaceOnUse" color-interpolation-filters="sRGB">
<feFlood flood-opacity="0" result="BackgroundImageFix"/>
<feBlend mode="normal" in="SourceGraphic" in2="BackgroundImageFix" result="shape"/>
<feGaussianBlur stdDeviation="1" result="effect1_foregroundBlur"/>
</filter>
<filter id="filter17_f" x="1023" y="732" width="9" height="9" filterUnits="userSpaceOnUse" color-interpolation-filters="sRGB">
<feFlood flood-opacity="0" result="BackgroundImageFix"/>
<feBlend mode="normal" in="SourceGraphic" in2="BackgroundImageFix" result="shape"/>
<feGaussianBlur stdDeviation="1" result="effect1_foregroundBlur"/>
</filter>
<filter id="filter18_f" x="755" y="947" width="17" height="17" filterUnits="userSpaceOnUse" color-interpolation-filters="sRGB">
<feFlood flood-opacity="0" result="BackgroundImageFix"/>
<feBlend mode="normal" in="SourceGraphic" in2="BackgroundImageFix" result="shape"/>
<feGaussianBlur stdDeviation="3" result="effect1_foregroundBlur"/>
</filter>
<filter id="filter19_f" x="1181" y="415" width="9" height="9" filterUnits="userSpaceOnUse" color-interpolation-filters="sRGB">
<feFlood flood-opacity="0" result="BackgroundImageFix"/>
<feBlend mode="normal" in="SourceGraphic" in2="BackgroundImageFix" result="shape"/>
<feGaussianBlur stdDeviation="1" result="effect1_foregroundBlur"/>
</filter>
<filter id="filter20_f" x="1312" y="1031" width="17" height="17" filterUnits="userSpaceOnUse" color-interpolation-filters="sRGB">
<feFlood flood-opacity="0" result="BackgroundImageFix"/>
<feBlend mode="normal" in="SourceGraphic" in2="BackgroundImageFix" result="shape"/>
<feGaussianBlur stdDeviation="3" result="effect1_foregroundBlur"/>
</filter>
<filter id="filter21_f" x="1273" y="906" width="17" height="17" filterUnits="userSpaceOnUse" color-interpolation-filters="sRGB">
<feFlood flood-opacity="0" result="BackgroundImageFix"/>
<feBlend mode="normal" in="SourceGraphic" in2="BackgroundImageFix" result="shape"/>
<feGaussianBlur stdDeviation="3" result="effect1_foregroundBlur"/>
</filter>
<filter id="filter22_f" x="185" y="559" width="14" height="14" filterUnits="userSpaceOnUse" color-interpolation-filters="sRGB">
<feFlood flood-opacity="0" result="BackgroundImageFix"/>
<feBlend mode="normal" in="SourceGraphic" in2="BackgroundImageFix" result="shape"/>
<feGaussianBlur stdDeviation="1" result="effect1_foregroundBlur"/>
</filter>
<filter id="filter23_f" x="20" y="336" width="14" height="14" filterUnits="userSpaceOnUse" color-interpolation-filters="sRGB">
<feFlood flood-opacity="0" result="BackgroundImageFix"/>
<feBlend mode="normal" in="SourceGraphic" in2="BackgroundImageFix" result="shape"/>
<feGaussianBlur stdDeviation="1" result="effect1_foregroundBlur"/>
</filter>
<filter id="filter24_f" x="523" y="100" width="16" height="16" filterUnits="userSpaceOnUse" color-interpolation-filters="sRGB">
<feFlood flood-opacity="0" result="BackgroundImageFix"/>
<feBlend mode="normal" in="SourceGraphic" in2="BackgroundImageFix" result="shape"/>
<feGaussianBlur stdDeviation="1.5" result="effect1_foregroundBlur"/>
</filter>
<filter id="filter25_f" x="96" y="212" width="14" height="14" filterUnits="userSpaceOnUse" color-interpolation-filters="sRGB">
<feFlood flood-opacity="0" result="BackgroundImageFix"/>
<feBlend mode="normal" in="SourceGraphic" in2="BackgroundImageFix" result="shape"/>
<feGaussianBlur stdDeviation="1" result="effect1_foregroundBlur"/>
</filter>
<filter id="filter26_f" x="30" y="745" width="14" height="14" filterUnits="userSpaceOnUse" color-interpolation-filters="sRGB">
<feFlood flood-opacity="0" result="BackgroundImageFix"/>
<feBlend mode="normal" in="SourceGraphic" in2="BackgroundImageFix" result="shape"/>
<feGaussianBlur stdDeviation="1" result="effect1_foregroundBlur"/>
</filter>
<filter id="filter27_f" x="232" y="848" width="17" height="17" filterUnits="userSpaceOnUse" color-interpolation-filters="sRGB">
<feFlood flood-opacity="0" result="BackgroundImageFix"/>
<feBlend mode="normal" in="SourceGraphic" in2="BackgroundImageFix" result="shape"/>
<feGaussianBlur stdDeviation="3" result="effect1_foregroundBlur"/>
</filter>
<filter id="filter28_f" x="658" y="316" width="9" height="9" filterUnits="userSpaceOnUse" color-interpolation-filters="sRGB">
<feFlood flood-opacity="0" result="BackgroundImageFix"/>
<feBlend mode="normal" in="SourceGraphic" in2="BackgroundImageFix" result="shape"/>
<feGaussianBlur stdDeviation="1" result="effect1_foregroundBlur"/>
</filter>
<filter id="filter29_f" x="493" y="542" width="14" height="14" filterUnits="userSpaceOnUse" color-interpolation-filters="sRGB">
<feFlood flood-opacity="0" result="BackgroundImageFix"/>
<feBlend mode="normal" in="SourceGraphic" in2="BackgroundImageFix" result="shape"/>
<feGaussianBlur stdDeviation="1" result="effect1_foregroundBlur"/>
</filter>
<filter id="filter30_f" x="90" y="394" width="14" height="14" filterUnits="userSpaceOnUse" color-interpolation-filters="sRGB">
<feFlood flood-opacity="0" result="BackgroundImageFix"/>
<feBlend mode="normal" in="SourceGraphic" in2="BackgroundImageFix" result="shape"/>
<feGaussianBlur stdDeviation="1" result="effect1_foregroundBlur"/>
</filter>
<filter id="filter31_f" x="547" y="732" width="16" height="16" filterUnits="userSpaceOnUse" color-interpolation-filters="sRGB">
<feFlood flood-opacity="0" result="BackgroundImageFix"/>
<feBlend mode="normal" in="SourceGraphic" in2="BackgroundImageFix" result="shape"/>
<feGaussianBlur stdDeviation="1.5" result="effect1_foregroundBlur"/>
</filter>
<filter id="filter32_f" x="437" y="305" width="14" height="14" filterUnits="userSpaceOnUse" color-interpolation-filters="sRGB">
<feFlood flood-opacity="0" result="BackgroundImageFix"/>
<feBlend mode="normal" in="SourceGraphic" in2="BackgroundImageFix" result="shape"/>
<feGaussianBlur stdDeviation="1" result="effect1_foregroundBlur"/>
</filter>
<filter id="filter33_f" x="463" y="355" width="9" height="9" filterUnits="userSpaceOnUse" color-interpolation-filters="sRGB">
<feFlood flood-opacity="0" result="BackgroundImageFix"/>
<feBlend mode="normal" in="SourceGraphic" in2="BackgroundImageFix" result="shape"/>
<feGaussianBlur stdDeviation="1" result="effect1_foregroundBlur"/>
</filter>
<filter id="filter34_f" x="995" y="872" width="17" height="17" filterUnits="userSpaceOnUse" color-interpolation-filters="sRGB">
<feFlood flood-opacity="0" result="BackgroundImageFix"/>
<feBlend mode="normal" in="SourceGraphic" in2="BackgroundImageFix" result="shape"/>
<feGaussianBlur stdDeviation="3" result="effect1_foregroundBlur"/>
</filter>
<filter id="filter35_f" x="750" y="807" width="17" height="17" filterUnits="userSpaceOnUse" color-interpolation-filters="sRGB">
<feFlood flood-opacity="0" result="BackgroundImageFix"/>
<feBlend mode="normal" in="SourceGraphic" in2="BackgroundImageFix" result="shape"/>
<feGaussianBlur stdDeviation="3" result="effect1_foregroundBlur"/>
</filter>
<filter id="filter36_f" x="1393" y="302" width="14" height="14" filterUnits="userSpaceOnUse" color-interpolation-filters="sRGB">
<feFlood flood-opacity="0" result="BackgroundImageFix"/>
<feBlend mode="normal" in="SourceGraphic" in2="BackgroundImageFix" result="shape"/>
<feGaussianBlur stdDeviation="1" result="effect1_foregroundBlur"/>
</filter>
<filter id="filter37_f" x="1358" y="426" width="14" height="14" filterUnits="userSpaceOnUse" color-interpolation-filters="sRGB">
<feFlood flood-opacity="0" result="BackgroundImageFix"/>
<feBlend mode="normal" in="SourceGraphic" in2="BackgroundImageFix" result="shape"/>
<feGaussianBlur stdDeviation="1" result="effect1_foregroundBlur"/>
</filter>
<filter id="filter38_f" x="1779" y="901" width="18" height="18" filterUnits="userSpaceOnUse" color-interpolation-filters="sRGB">
<feFlood flood-opacity="0" result="BackgroundImageFix"/>
<feBlend mode="normal" in="SourceGraphic" in2="BackgroundImageFix" result="shape"/>
<feGaussianBlur stdDeviation="2" result="effect1_foregroundBlur"/>
</filter>
<filter id="filter39_f" x="1544" y="647" width="14" height="14" filterUnits="userSpaceOnUse" color-interpolation-filters="sRGB">
<feFlood flood-opacity="0" result="BackgroundImageFix"/>
<feBlend mode="normal" in="SourceGraphic" in2="BackgroundImageFix" result="shape"/>
<feGaussianBlur stdDeviation="1" result="effect1_foregroundBlur"/>
</filter>
<filter id="filter40_f" x="1673" y="433" width="9" height="9" filterUnits="userSpaceOnUse" color-interpolation-filters="sRGB">
<feFlood flood-opacity="0" result="BackgroundImageFix"/>
<feBlend mode="normal" in="SourceGraphic" in2="BackgroundImageFix" result="shape"/>
<feGaussianBlur stdDeviation="1" result="effect1_foregroundBlur"/>
</filter>
<filter id="filter41_f" x="1885" y="320" width="14" height="14" filterUnits="userSpaceOnUse" color-interpolation-filters="sRGB">
<feFlood flood-opacity="0" result="BackgroundImageFix"/>
<feBlend mode="normal" in="SourceGraphic" in2="BackgroundImageFix" result="shape"/>
<feGaussianBlur stdDeviation="1" result="effect1_foregroundBlur"/>
</filter>
<filter id="filter42_f" x="1616" y="137" width="14" height="14" filterUnits="userSpaceOnUse" color-interpolation-filters="sRGB">
<feFlood flood-opacity="0" result="BackgroundImageFix"/>
<feBlend mode="normal" in="SourceGraphic" in2="BackgroundImageFix" result="shape"/>
<feGaussianBlur stdDeviation="1" result="effect1_foregroundBlur"/>
</filter>
<filter id="filter43_f" x="1850" y="640" width="16" height="16" filterUnits="userSpaceOnUse" color-interpolation-filters="sRGB">
<feFlood flood-opacity="0" result="BackgroundImageFix"/>
<feBlend mode="normal" in="SourceGraphic" in2="BackgroundImageFix" result="shape"/>
<feGaussianBlur stdDeviation="1.5" result="effect1_foregroundBlur"/>
</filter>
<filter id="filter44_f" x="1740" y="213" width="14" height="14" filterUnits="userSpaceOnUse" color-interpolation-filters="sRGB">
<feFlood flood-opacity="0" result="BackgroundImageFix"/>
<feBlend mode="normal" in="SourceGraphic" in2="BackgroundImageFix" result="shape"/>
<feGaussianBlur stdDeviation="1" result="effect1_foregroundBlur"/>
</filter>
<filter id="filter45_f" x="1207" y="147" width="14" height="14" filterUnits="userSpaceOnUse" color-interpolation-filters="sRGB">
<feFlood flood-opacity="0" result="BackgroundImageFix"/>
<feBlend mode="normal" in="SourceGraphic" in2="BackgroundImageFix" result="shape"/>
<feGaussianBlur stdDeviation="1" result="effect1_foregroundBlur"/>
</filter>
<filter id="filter46_f" x="1101" y="349" width="17" height="17" filterUnits="userSpaceOnUse" color-interpolation-filters="sRGB">
<feFlood flood-opacity="0" result="BackgroundImageFix"/>
<feBlend mode="normal" in="SourceGraphic" in2="BackgroundImageFix" result="shape"/>
<feGaussianBlur stdDeviation="3" result="effect1_foregroundBlur"/>
</filter>
<filter id="filter47_f" x="1096" y="621" width="17" height="17" filterUnits="userSpaceOnUse" color-interpolation-filters="sRGB">
<feFlood flood-opacity="0" result="BackgroundImageFix"/>
<feBlend mode="normal" in="SourceGraphic" in2="BackgroundImageFix" result="shape"/>
<feGaussianBlur stdDeviation="3" result="effect1_foregroundBlur"/>
</filter>
<filter id="filter48_f" x="1632" y="806" width="9" height="9" filterUnits="userSpaceOnUse" color-interpolation-filters="sRGB">
<feFlood flood-opacity="0" result="BackgroundImageFix"/>
<feBlend mode="normal" in="SourceGraphic" in2="BackgroundImageFix" result="shape"/>
<feGaussianBlur stdDeviation="1" result="effect1_foregroundBlur"/>
</filter>
<filter id="filter49_f" x="1017" y="906" width="17" height="17" filterUnits="userSpaceOnUse" color-interpolation-filters="sRGB">
<feFlood flood-opacity="0" result="BackgroundImageFix"/>
<feBlend mode="normal" in="SourceGraphic" in2="BackgroundImageFix" result="shape"/>
<feGaussianBlur stdDeviation="3" result="effect1_foregroundBlur"/>
</filter>
<filter id="filter50_f" x="1142" y="867" width="17" height="17" filterUnits="userSpaceOnUse" color-interpolation-filters="sRGB">
<feFlood flood-opacity="0" result="BackgroundImageFix"/>
<feBlend mode="normal" in="SourceGraphic" in2="BackgroundImageFix" result="shape"/>
<feGaussianBlur stdDeviation="3" result="effect1_foregroundBlur"/>
</filter>
<filter id="filter51_d" x="610" y="441" width="700" height="700" filterUnits="userSpaceOnUse" color-interpolation-filters="sRGB">
<feFlood flood-opacity="0" result="BackgroundImageFix"/>
<feColorMatrix in="SourceAlpha" type="matrix" values="0 0 0 0 0 0 0 0 0 0 0 0 0 0 0 0 0 0 127 0"/>
<feOffset/>
<feGaussianBlur stdDeviation="100"/>
<feColorMatrix type="matrix" values="0 0 0 0 0.795833 0 0 0 0 0.33425 0 0 0 0 0 0 0 0 0.75 0"/>
<feBlend mode="normal" in2="BackgroundImageFix" result="effect1_dropShadow"/>
<feBlend mode="normal" in="SourceGraphic" in2="effect1_dropShadow" result="shape"/>
</filter>
<filter id="filter52_d" x="-1046.86" y="807.656" width="4013.72" height="287.344" filterUnits="userSpaceOnUse" color-interpolation-filters="sRGB">
<feFlood flood-opacity="0" result="BackgroundImageFix"/>
<feColorMatrix in="SourceAlpha" type="matrix" values="0 0 0 0 0 0 0 0 0 0 0 0 0 0 0 0 0 0 127 0"/>
<feOffset/>
<feGaussianBlur stdDeviation="7.5"/>
<feColorMatrix type="matrix" values="0 0 0 0 1 0 0 0 0 0 0 0 0 0 0.78 0 0 0 1 0"/>
<feBlend mode="normal" in2="BackgroundImageFix" result="effect1_dropShadow"/>
<feBlend mode="normal" in="SourceGraphic" in2="effect1_dropShadow" result="shape"/>
</filter>
<linearGradient id="paint0_linear" x1="960" y1="0" x2="960" y2="1080" gradientUnits="userSpaceOnUse">
<stop stop-color="#09001D"/>
<stop offset="0.582589" stop-color="#4E0695"/>
<stop offset="1" stop-color="#9F29C9"/>
</linearGradient>
<linearGradient id="paint1_linear" x1="960" y1="641" x2="960" y2="941" gradientUnits="userSpaceOnUse">
<stop stop-color="white" stop-opacity="0"/>
<stop offset="0.443654" stop-color="#FF0000" stop-opacity="0.453125"/>
<stop offset="0.840381" stop-color="#FF008A" stop-opacity="0.75"/>
</linearGradient>
<linearGradient id="paint2_linear" x1="960" y1="641" x2="960" y2="941" gradientUnits="userSpaceOnUse">
<stop stop-color="white" stop-opacity="0"/>
<stop offset="0.443654" stop-color="#FF0000" stop-opacity="0.453125"/>
<stop offset="0.840381" stop-color="#FF008A" stop-opacity="0.75"/>
</linearGradient>
<linearGradient id="paint3_linear" x1="960" y1="641" x2="960" y2="941" gradientUnits="userSpaceOnUse">
<stop stop-color="white" stop-opacity="0"/>
<stop offset="0.443654" stop-color="#FF0000" stop-opacity="0.453125"/>
<stop offset="0.840381" stop-color="#FF008A" stop-opacity="0.75"/>
</linearGradient>
<linearGradient id="paint4_linear" x1="960" y1="641" x2="960" y2="941" gradientUnits="userSpaceOnUse">
<stop stop-color="white" stop-opacity="0"/>
<stop offset="0.443654" stop-color="#FF0000" stop-opacity="0.453125"/>
<stop offset="0.840381" stop-color="#FF008A" stop-opacity="0.75"/>
</linearGradient>
<linearGradient id="paint5_linear" x1="960" y1="641" x2="960" y2="941" gradientUnits="userSpaceOnUse">
<stop stop-color="white" stop-opacity="0"/>
<stop offset="0.443654" stop-color="#FF0000" stop-opacity="0.453125"/>
<stop offset="0.840381" stop-color="#FF008A" stop-opacity="0.75"/>
</linearGradient>
<linearGradient id="paint6_linear" x1="960" y1="641" x2="960" y2="941" gradientUnits="userSpaceOnUse">
<stop stop-color="white" stop-opacity="0"/>
<stop offset="0.443654" stop-color="#FF0000" stop-opacity="0.453125"/>
<stop offset="0.840381" stop-color="#FF008A" stop-opacity="0.75"/>
</linearGradient>
<linearGradient id="paint7_linear" x1="960" y1="641" x2="960" y2="941" gradientUnits="userSpaceOnUse">
<stop stop-color="white" stop-opacity="0"/>
<stop offset="0.443654" stop-color="#FF0000" stop-opacity="0.453125"/>
<stop offset="0.840381" stop-color="#FF008A" stop-opacity="0.75"/>
</linearGradient>
<linearGradient id="paint8_linear" x1="960" y1="930" x2="960" y2="1080" gradientUnits="userSpaceOnUse">
<stop stop-color="#007EF2"/>
<stop offset="1" stop-opacity="0"/>
</linearGradient>
<linearGradient id="paint9_linear" x1="959.75" y1="808" x2="959.75" y2="933" gradientUnits="userSpaceOnUse">
<stop offset="0.566964" stop-color="#0E0671" stop-opacity="0.29"/>
<stop offset="1" stop-color="#00A3FF" stop-opacity="0.4"/>
</linearGradient>
<linearGradient id="paint10_linear" x1="960.5" y1="776" x2="960.5" y2="1112" gradientUnits="userSpaceOnUse">
<stop stop-color="white" stop-opacity="0"/>
<stop offset="0.395089" stop-color="#FF2AF6" stop-opacity="0.24"/>
<stop offset="0.457589" stop-color="white" stop-opacity="0.66"/>
<stop offset="0.588584" stop-color="#FF4CF8" stop-opacity="0.35"/>
<stop offset="1" stop-color="white" stop-opacity="0"/>
</linearGradient>
<clipPath id="clip0">
<rect width="1920" height="1080" fill="white"/>
</clipPath>
<clipPath id="clip1">
<rect width="1920" height="150" fill="white" transform="translate(0 930)"/>
</clipPath>
</defs>
</svg>
